ISO-10303-21;
HEADER;
/* Generated by software containing ST-Developer
 * from STEP Tools, Inc. (www.steptools.com) 
 */

FILE_DESCRIPTION(
/* description */ (''),
/* implementation_level */ '2;1');

FILE_NAME(
/* name */ 'bottom-cover.step',
/* time_stamp */ '2026-03-06T23:58:20-03:00',
/* author */ (''),
/* organization */ (''),
/* preprocessor_version */ 'ST-DEVELOPER v20.1',
/* originating_system */ 'Autodesk Translation Framework v14.24.0.0',
/* authorisation */ '');

FILE_SCHEMA (('AUTOMOTIVE_DESIGN { 1 0 10303 214 3 1 1 }'));
ENDSEC;

DATA;
#10=MECHANICAL_DESIGN_GEOMETRIC_PRESENTATION_REPRESENTATION('',(#13),#1331);
#11=SHAPE_REPRESENTATION_RELATIONSHIP('SRR','None',#1338,#12);
#12=ADVANCED_BREP_SHAPE_REPRESENTATION('',(#14),#1330);
#13=STYLED_ITEM('',(#1347),#14);
#14=MANIFOLD_SOLID_BREP('bottom-cover',#789);
#15=FACE_BOUND('',#112,.T.);
#16=PLANE('',#825);
#17=PLANE('',#828);
#18=PLANE('',#829);
#19=PLANE('',#830);
#20=PLANE('',#831);
#21=PLANE('',#832);
#22=PLANE('',#833);
#23=PLANE('',#834);
#24=PLANE('',#837);
#25=PLANE('',#838);
#26=PLANE('',#839);
#27=PLANE('',#840);
#28=PLANE('',#841);
#29=PLANE('',#842);
#30=PLANE('',#843);
#31=PLANE('',#844);
#32=PLANE('',#846);
#33=PLANE('',#848);
#34=PLANE('',#849);
#35=PLANE('',#850);
#36=PLANE('',#851);
#37=PLANE('',#852);
#38=PLANE('',#853);
#39=PLANE('',#854);
#40=PLANE('',#855);
#41=PLANE('',#856);
#42=PLANE('',#857);
#43=PLANE('',#858);
#44=PLANE('',#859);
#45=PLANE('',#860);
#46=PLANE('',#861);
#47=(
BOUNDED_SURFACE()
B_SPLINE_SURFACE(2,2,((#1082,#1083,#1084),(#1085,#1086,#1087),(#1088,#1089,
#1090)),.UNSPECIFIED.,.F.,.F.,.F.)
B_SPLINE_SURFACE_WITH_KNOTS((3,3),(3,3),(-3.35379872022183E-16,1.5707963267949),
(1.5707963267949,3.14159265358979),.UNSPECIFIED.)
GEOMETRIC_REPRESENTATION_ITEM()
RATIONAL_B_SPLINE_SURFACE(((1.,0.707106781186548,1.),(0.707106781186547,
0.5,0.707106781186547),(1.,0.707106781186548,1.)))
REPRESENTATION_ITEM('')
SURFACE()
);
#48=(
BOUNDED_SURFACE()
B_SPLINE_SURFACE(2,2,((#1102,#1103,#1104),(#1105,#1106,#1107),(#1108,#1109,
#1110)),.UNSPECIFIED.,.F.,.F.,.F.)
B_SPLINE_SURFACE_WITH_KNOTS((3,3),(3,3),(-3.25076575360147E-16,1.5707963267949),
(-3.14159265358979,-1.5707963267949),.UNSPECIFIED.)
GEOMETRIC_REPRESENTATION_ITEM()
RATIONAL_B_SPLINE_SURFACE(((1.,0.707106781186547,1.),(0.707106781186547,
0.499999999999999,0.707106781186547),(1.,0.707106781186547,1.)))
REPRESENTATION_ITEM('')
SURFACE()
);
#49=(
BOUNDED_SURFACE()
B_SPLINE_SURFACE(2,2,((#1122,#1123,#1124),(#1125,#1126,#1127),(#1128,#1129,
#1130)),.UNSPECIFIED.,.F.,.F.,.F.)
B_SPLINE_SURFACE_WITH_KNOTS((3,3),(3,3),(-4.05275164863016E-16,1.5707963267949),
(-1.5707963267949,1.57047800595735E-15),.UNSPECIFIED.)
GEOMETRIC_REPRESENTATION_ITEM()
RATIONAL_B_SPLINE_SURFACE(((1.,0.707106781186547,1.),(0.707106781186537,
0.499999999999992,0.707106781186537),(1.,0.707106781186547,1.)))
REPRESENTATION_ITEM('')
SURFACE()
);
#50=(
BOUNDED_SURFACE()
B_SPLINE_SURFACE(2,2,((#1142,#1143,#1144),(#1145,#1146,#1147),(#1148,#1149,
#1150)),.UNSPECIFIED.,.F.,.F.,.F.)
B_SPLINE_SURFACE_WITH_KNOTS((3,3),(3,3),(-3.69815700610549E-16,1.5707963267949),
(-8.30010275885946E-18,1.5707963267949),.UNSPECIFIED.)
GEOMETRIC_REPRESENTATION_ITEM()
RATIONAL_B_SPLINE_SURFACE(((1.,0.707106781186548,1.),(0.707106781186537,
0.499999999999993,0.707106781186537),(1.,0.707106781186548,1.)))
REPRESENTATION_ITEM('')
SURFACE()
);
#51=FACE_OUTER_BOUND('',#94,.T.);
#52=FACE_OUTER_BOUND('',#95,.T.);
#53=FACE_OUTER_BOUND('',#96,.T.);
#54=FACE_OUTER_BOUND('',#97,.T.);
#55=FACE_OUTER_BOUND('',#98,.T.);
#56=FACE_OUTER_BOUND('',#99,.T.);
#57=FACE_OUTER_BOUND('',#100,.T.);
#58=FACE_OUTER_BOUND('',#101,.T.);
#59=FACE_OUTER_BOUND('',#102,.T.);
#60=FACE_OUTER_BOUND('',#103,.T.);
#61=FACE_OUTER_BOUND('',#104,.T.);
#62=FACE_OUTER_BOUND('',#105,.T.);
#63=FACE_OUTER_BOUND('',#106,.T.);
#64=FACE_OUTER_BOUND('',#107,.T.);
#65=FACE_OUTER_BOUND('',#108,.T.);
#66=FACE_OUTER_BOUND('',#109,.T.);
#67=FACE_OUTER_BOUND('',#110,.T.);
#68=FACE_OUTER_BOUND('',#111,.T.);
#69=FACE_OUTER_BOUND('',#113,.T.);
#70=FACE_OUTER_BOUND('',#114,.T.);
#71=FACE_OUTER_BOUND('',#115,.T.);
#72=FACE_OUTER_BOUND('',#116,.T.);
#73=FACE_OUTER_BOUND('',#117,.T.);
#74=FACE_OUTER_BOUND('',#118,.T.);
#75=FACE_OUTER_BOUND('',#119,.T.);
#76=FACE_OUTER_BOUND('',#120,.T.);
#77=FACE_OUTER_BOUND('',#121,.T.);
#78=FACE_OUTER_BOUND('',#122,.T.);
#79=FACE_OUTER_BOUND('',#123,.T.);
#80=FACE_OUTER_BOUND('',#124,.T.);
#81=FACE_OUTER_BOUND('',#125,.T.);
#82=FACE_OUTER_BOUND('',#126,.T.);
#83=FACE_OUTER_BOUND('',#127,.T.);
#84=FACE_OUTER_BOUND('',#128,.T.);
#85=FACE_OUTER_BOUND('',#129,.T.);
#86=FACE_OUTER_BOUND('',#130,.T.);
#87=FACE_OUTER_BOUND('',#131,.T.);
#88=FACE_OUTER_BOUND('',#132,.T.);
#89=FACE_OUTER_BOUND('',#133,.T.);
#90=FACE_OUTER_BOUND('',#134,.T.);
#91=FACE_OUTER_BOUND('',#135,.T.);
#92=FACE_OUTER_BOUND('',#136,.T.);
#93=FACE_OUTER_BOUND('',#137,.T.);
#94=EDGE_LOOP('',(#518,#519,#520,#521));
#95=EDGE_LOOP('',(#522,#523,#524,#525));
#96=EDGE_LOOP('',(#526,#527,#528,#529));
#97=EDGE_LOOP('',(#530,#531,#532,#533));
#98=EDGE_LOOP('',(#534,#535,#536,#537));
#99=EDGE_LOOP('',(#538,#539,#540,#541));
#100=EDGE_LOOP('',(#542,#543,#544,#545));
#101=EDGE_LOOP('',(#546,#547,#548,#549));
#102=EDGE_LOOP('',(#550,#551,#552,#553));
#103=EDGE_LOOP('',(#554,#555,#556,#557));
#104=EDGE_LOOP('',(#558,#559,#560,#561));
#105=EDGE_LOOP('',(#562,#563,#564,#565));
#106=EDGE_LOOP('',(#566,#567,#568,#569,#570,#571,#572,#573));
#107=EDGE_LOOP('',(#574,#575,#576,#577));
#108=EDGE_LOOP('',(#578,#579,#580,#581));
#109=EDGE_LOOP('',(#582,#583,#584,#585,#586,#587,#588,#589));
#110=EDGE_LOOP('',(#590,#591,#592,#593));
#111=EDGE_LOOP('',(#594,#595,#596,#597,#598,#599,#600,#601));
#112=EDGE_LOOP('',(#602,#603,#604,#605,#606,#607,#608,#609,#610,#611));
#113=EDGE_LOOP('',(#612,#613,#614,#615,#616,#617,#618));
#114=EDGE_LOOP('',(#619,#620,#621,#622,#623,#624));
#115=EDGE_LOOP('',(#625,#626,#627,#628,#629,#630));
#116=EDGE_LOOP('',(#631,#632,#633,#634));
#117=EDGE_LOOP('',(#635,#636,#637,#638,#639,#640,#641,#642));
#118=EDGE_LOOP('',(#643,#644,#645,#646,#647,#648,#649,#650,#651,#652,#653,
#654,#655,#656,#657,#658));
#119=EDGE_LOOP('',(#659,#660,#661,#662,#663,#664,#665));
#120=EDGE_LOOP('',(#666,#667,#668,#669));
#121=EDGE_LOOP('',(#670,#671,#672,#673));
#122=EDGE_LOOP('',(#674,#675,#676,#677));
#123=EDGE_LOOP('',(#678,#679,#680,#681));
#124=EDGE_LOOP('',(#682,#683,#684,#685));
#125=EDGE_LOOP('',(#686,#687,#688,#689));
#126=EDGE_LOOP('',(#690,#691,#692,#693));
#127=EDGE_LOOP('',(#694,#695,#696,#697));
#128=EDGE_LOOP('',(#698,#699,#700,#701));
#129=EDGE_LOOP('',(#702,#703,#704,#705));
#130=EDGE_LOOP('',(#706,#707,#708,#709));
#131=EDGE_LOOP('',(#710,#711,#712,#713));
#132=EDGE_LOOP('',(#714,#715,#716,#717));
#133=EDGE_LOOP('',(#718,#719,#720,#721));
#134=EDGE_LOOP('',(#722,#723,#724,#725));
#135=EDGE_LOOP('',(#726,#727,#728,#729));
#136=EDGE_LOOP('',(#730,#731,#732,#733));
#137=EDGE_LOOP('',(#734,#735,#736,#737));
#138=LINE('',#1078,#228);
#139=LINE('',#1081,#229);
#140=LINE('',#1100,#230);
#141=LINE('',#1101,#231);
#142=LINE('',#1120,#232);
#143=LINE('',#1121,#233);
#144=LINE('',#1140,#234);
#145=LINE('',#1141,#235);
#146=LINE('',#1155,#236);
#147=LINE('',#1158,#237);
#148=LINE('',#1161,#238);
#149=LINE('',#1162,#239);
#150=LINE('',#1165,#240);
#151=LINE('',#1169,#241);
#152=LINE('',#1170,#242);
#153=LINE('',#1175,#243);
#154=LINE('',#1177,#244);
#155=LINE('',#1179,#245);
#156=LINE('',#1180,#246);
#157=LINE('',#1184,#247);
#158=LINE('',#1186,#248);
#159=LINE('',#1188,#249);
#160=LINE('',#1189,#250);
#161=LINE('',#1192,#251);
#162=LINE('',#1194,#252);
#163=LINE('',#1196,#253);
#164=LINE('',#1197,#254);
#165=LINE('',#1199,#255);
#166=LINE('',#1200,#256);
#167=LINE('',#1204,#257);
#168=LINE('',#1206,#258);
#169=LINE('',#1208,#259);
#170=LINE('',#1209,#260);
#171=LINE('',#1214,#261);
#172=LINE('',#1217,#262);
#173=LINE('',#1219,#263);
#174=LINE('',#1221,#264);
#175=LINE('',#1223,#265);
#176=LINE('',#1225,#266);
#177=LINE('',#1227,#267);
#178=LINE('',#1229,#268);
#179=LINE('',#1231,#269);
#180=LINE('',#1233,#270);
#181=LINE('',#1234,#271);
#182=LINE('',#1237,#272);
#183=LINE('',#1239,#273);
#184=LINE('',#1240,#274);
#185=LINE('',#1241,#275);
#186=LINE('',#1245,#276);
#187=LINE('',#1247,#277);
#188=LINE('',#1249,#278);
#189=LINE('',#1250,#279);
#190=LINE('',#1251,#280);
#191=LINE('',#1254,#281);
#192=LINE('',#1256,#282);
#193=LINE('',#1258,#283);
#194=LINE('',#1259,#284);
#195=LINE('',#1261,#285);
#196=LINE('',#1263,#286);
#197=LINE('',#1265,#287);
#198=LINE('',#1267,#288);
#199=LINE('',#1268,#289);
#200=LINE('',#1269,#290);
#201=LINE('',#1272,#291);
#202=LINE('',#1274,#292);
#203=LINE('',#1276,#293);
#204=LINE('',#1278,#294);
#205=LINE('',#1280,#295);
#206=LINE('',#1282,#296);
#207=LINE('',#1284,#297);
#208=LINE('',#1286,#298);
#209=LINE('',#1288,#299);
#210=LINE('',#1289,#300);
#211=LINE('',#1291,#301);
#212=LINE('',#1293,#302);
#213=LINE('',#1294,#303);
#214=LINE('',#1296,#304);
#215=LINE('',#1298,#305);
#216=LINE('',#1299,#306);
#217=LINE('',#1301,#307);
#218=LINE('',#1303,#308);
#219=LINE('',#1305,#309);
#220=LINE('',#1309,#310);
#221=LINE('',#1311,#311);
#222=LINE('',#1314,#312);
#223=LINE('',#1315,#313);
#224=LINE('',#1318,#314);
#225=LINE('',#1320,#315);
#226=LINE('',#1323,#316);
#227=LINE('',#1324,#317);
#228=VECTOR('',#868,10.);
#229=VECTOR('',#871,10.);
#230=VECTOR('',#882,10.);
#231=VECTOR('',#883,10.);
#232=VECTOR('',#894,10.);
#233=VECTOR('',#895,10.);
#234=VECTOR('',#906,10.);
#235=VECTOR('',#907,10.);
#236=VECTOR('',#914,10.);
#237=VECTOR('',#917,10.);
#238=VECTOR('',#920,10.);
#239=VECTOR('',#921,10.);
#240=VECTOR('',#924,10.);
#241=VECTOR('',#929,10.);
#242=VECTOR('',#930,10.);
#243=VECTOR('',#935,10.);
#244=VECTOR('',#936,10.);
#245=VECTOR('',#937,10.);
#246=VECTOR('',#938,10.);
#247=VECTOR('',#941,10.);
#248=VECTOR('',#942,10.);
#249=VECTOR('',#943,10.);
#250=VECTOR('',#944,10.);
#251=VECTOR('',#947,10.);
#252=VECTOR('',#948,10.);
#253=VECTOR('',#949,10.);
#254=VECTOR('',#950,10.);
#255=VECTOR('',#951,10.);
#256=VECTOR('',#952,10.);
#257=VECTOR('',#955,10.);
#258=VECTOR('',#956,10.);
#259=VECTOR('',#957,10.);
#260=VECTOR('',#958,10.);
#261=VECTOR('',#963,10.);
#262=VECTOR('',#966,10.);
#263=VECTOR('',#967,10.);
#264=VECTOR('',#968,10.);
#265=VECTOR('',#969,10.);
#266=VECTOR('',#970,10.);
#267=VECTOR('',#971,10.);
#268=VECTOR('',#972,10.);
#269=VECTOR('',#973,10.);
#270=VECTOR('',#974,10.);
#271=VECTOR('',#975,10.);
#272=VECTOR('',#978,10.);
#273=VECTOR('',#979,10.);
#274=VECTOR('',#980,10.);
#275=VECTOR('',#981,10.);
#276=VECTOR('',#984,10.);
#277=VECTOR('',#985,10.);
#278=VECTOR('',#986,10.);
#279=VECTOR('',#987,10.);
#280=VECTOR('',#988,10.);
#281=VECTOR('',#991,10.);
#282=VECTOR('',#992,10.);
#283=VECTOR('',#993,10.);
#284=VECTOR('',#994,10.);
#285=VECTOR('',#997,10.);
#286=VECTOR('',#1000,10.);
#287=VECTOR('',#1001,10.);
#288=VECTOR('',#1002,10.);
#289=VECTOR('',#1003,10.);
#290=VECTOR('',#1004,10.);
#291=VECTOR('',#1007,10.);
#292=VECTOR('',#1008,10.);
#293=VECTOR('',#1009,10.);
#294=VECTOR('',#1010,10.);
#295=VECTOR('',#1011,10.);
#296=VECTOR('',#1012,10.);
#297=VECTOR('',#1013,10.);
#298=VECTOR('',#1014,10.);
#299=VECTOR('',#1015,10.);
#300=VECTOR('',#1016,10.);
#301=VECTOR('',#1017,10.);
#302=VECTOR('',#1018,10.);
#303=VECTOR('',#1019,10.);
#304=VECTOR('',#1022,10.);
#305=VECTOR('',#1025,10.);
#306=VECTOR('',#1026,10.);
#307=VECTOR('',#1029,10.);
#308=VECTOR('',#1032,10.);
#309=VECTOR('',#1035,10.);
#310=VECTOR('',#1042,10.);
#311=VECTOR('',#1045,10.);
#312=VECTOR('',#1050,10.);
#313=VECTOR('',#1051,10.);
#314=VECTOR('',#1056,10.);
#315=VECTOR('',#1059,10.);
#316=VECTOR('',#1064,10.);
#317=VECTOR('',#1065,10.);
#318=CIRCLE('',#804,3.);
#319=CIRCLE('',#805,3.);
#320=CIRCLE('',#806,2.99999999999998);
#321=CIRCLE('',#807,2.);
#322=CIRCLE('',#808,5.);
#323=CIRCLE('',#810,3.);
#324=CIRCLE('',#811,3.);
#325=CIRCLE('',#812,2.);
#326=CIRCLE('',#813,5.);
#327=CIRCLE('',#815,3.);
#328=CIRCLE('',#816,2.99999999999997);
#329=CIRCLE('',#817,2.);
#330=CIRCLE('',#818,5.);
#331=CIRCLE('',#820,3.00000000000001);
#332=CIRCLE('',#821,2.);
#333=CIRCLE('',#822,5.);
#334=CIRCLE('',#824,5.);
#335=CIRCLE('',#827,5.);
#336=CIRCLE('',#835,5.);
#337=CIRCLE('',#836,5.);
#338=VERTEX_POINT('',#1074);
#339=VERTEX_POINT('',#1075);
#340=VERTEX_POINT('',#1077);
#341=VERTEX_POINT('',#1079);
#342=VERTEX_POINT('',#1091);
#343=VERTEX_POINT('',#1092);
#344=VERTEX_POINT('',#1097);
#345=VERTEX_POINT('',#1098);
#346=VERTEX_POINT('',#1111);
#347=VERTEX_POINT('',#1112);
#348=VERTEX_POINT('',#1117);
#349=VERTEX_POINT('',#1118);
#350=VERTEX_POINT('',#1131);
#351=VERTEX_POINT('',#1132);
#352=VERTEX_POINT('',#1137);
#353=VERTEX_POINT('',#1138);
#354=VERTEX_POINT('',#1154);
#355=VERTEX_POINT('',#1156);
#356=VERTEX_POINT('',#1160);
#357=VERTEX_POINT('',#1164);
#358=VERTEX_POINT('',#1168);
#359=VERTEX_POINT('',#1173);
#360=VERTEX_POINT('',#1174);
#361=VERTEX_POINT('',#1176);
#362=VERTEX_POINT('',#1178);
#363=VERTEX_POINT('',#1182);
#364=VERTEX_POINT('',#1183);
#365=VERTEX_POINT('',#1185);
#366=VERTEX_POINT('',#1187);
#367=VERTEX_POINT('',#1191);
#368=VERTEX_POINT('',#1193);
#369=VERTEX_POINT('',#1195);
#370=VERTEX_POINT('',#1198);
#371=VERTEX_POINT('',#1202);
#372=VERTEX_POINT('',#1203);
#373=VERTEX_POINT('',#1205);
#374=VERTEX_POINT('',#1207);
#375=VERTEX_POINT('',#1211);
#376=VERTEX_POINT('',#1213);
#377=VERTEX_POINT('',#1215);
#378=VERTEX_POINT('',#1218);
#379=VERTEX_POINT('',#1220);
#380=VERTEX_POINT('',#1222);
#381=VERTEX_POINT('',#1224);
#382=VERTEX_POINT('',#1226);
#383=VERTEX_POINT('',#1228);
#384=VERTEX_POINT('',#1230);
#385=VERTEX_POINT('',#1232);
#386=VERTEX_POINT('',#1236);
#387=VERTEX_POINT('',#1238);
#388=VERTEX_POINT('',#1243);
#389=VERTEX_POINT('',#1244);
#390=VERTEX_POINT('',#1246);
#391=VERTEX_POINT('',#1248);
#392=VERTEX_POINT('',#1253);
#393=VERTEX_POINT('',#1255);
#394=VERTEX_POINT('',#1257);
#395=VERTEX_POINT('',#1264);
#396=VERTEX_POINT('',#1266);
#397=VERTEX_POINT('',#1271);
#398=VERTEX_POINT('',#1273);
#399=VERTEX_POINT('',#1275);
#400=VERTEX_POINT('',#1277);
#401=VERTEX_POINT('',#1279);
#402=VERTEX_POINT('',#1281);
#403=VERTEX_POINT('',#1283);
#404=VERTEX_POINT('',#1285);
#405=VERTEX_POINT('',#1287);
#406=VERTEX_POINT('',#1290);
#407=VERTEX_POINT('',#1292);
#408=EDGE_CURVE('',#338,#339,#318,.T.);
#409=EDGE_CURVE('',#339,#340,#138,.T.);
#410=EDGE_CURVE('',#340,#341,#319,.T.);
#411=EDGE_CURVE('',#341,#338,#139,.T.);
#412=EDGE_CURVE('',#342,#343,#320,.T.);
#413=EDGE_CURVE('',#343,#341,#321,.T.);
#414=EDGE_CURVE('',#340,#342,#322,.T.);
#415=EDGE_CURVE('',#344,#345,#323,.T.);
#416=EDGE_CURVE('',#345,#343,#140,.T.);
#417=EDGE_CURVE('',#342,#344,#141,.T.);
#418=EDGE_CURVE('',#346,#347,#324,.T.);
#419=EDGE_CURVE('',#347,#345,#325,.T.);
#420=EDGE_CURVE('',#344,#346,#326,.T.);
#421=EDGE_CURVE('',#348,#349,#327,.T.);
#422=EDGE_CURVE('',#349,#347,#142,.T.);
#423=EDGE_CURVE('',#346,#348,#143,.T.);
#424=EDGE_CURVE('',#350,#351,#328,.T.);
#425=EDGE_CURVE('',#351,#349,#329,.T.);
#426=EDGE_CURVE('',#348,#350,#330,.T.);
#427=EDGE_CURVE('',#352,#353,#331,.T.);
#428=EDGE_CURVE('',#353,#351,#144,.T.);
#429=EDGE_CURVE('',#350,#352,#145,.T.);
#430=EDGE_CURVE('',#338,#353,#332,.T.);
#431=EDGE_CURVE('',#352,#339,#333,.T.);
#432=EDGE_CURVE('',#344,#354,#146,.T.);
#433=EDGE_CURVE('',#354,#355,#334,.T.);
#434=EDGE_CURVE('',#355,#346,#147,.T.);
#435=EDGE_CURVE('',#356,#342,#148,.T.);
#436=EDGE_CURVE('',#356,#354,#149,.T.);
#437=EDGE_CURVE('',#340,#357,#150,.T.);
#438=EDGE_CURVE('',#357,#356,#335,.T.);
#439=EDGE_CURVE('',#358,#339,#151,.T.);
#440=EDGE_CURVE('',#358,#357,#152,.T.);
#441=EDGE_CURVE('',#359,#360,#153,.T.);
#442=EDGE_CURVE('',#360,#361,#154,.T.);
#443=EDGE_CURVE('',#362,#361,#155,.T.);
#444=EDGE_CURVE('',#362,#359,#156,.T.);
#445=EDGE_CURVE('',#363,#364,#157,.T.);
#446=EDGE_CURVE('',#365,#363,#158,.T.);
#447=EDGE_CURVE('',#366,#365,#159,.T.);
#448=EDGE_CURVE('',#364,#366,#160,.T.);
#449=EDGE_CURVE('',#363,#367,#161,.T.);
#450=EDGE_CURVE('',#364,#368,#162,.T.);
#451=EDGE_CURVE('',#369,#368,#163,.T.);
#452=EDGE_CURVE('',#360,#369,#164,.T.);
#453=EDGE_CURVE('',#370,#359,#165,.T.);
#454=EDGE_CURVE('',#367,#370,#166,.T.);
#455=EDGE_CURVE('',#371,#372,#167,.T.);
#456=EDGE_CURVE('',#371,#373,#168,.T.);
#457=EDGE_CURVE('',#373,#374,#169,.T.);
#458=EDGE_CURVE('',#372,#374,#170,.T.);
#459=EDGE_CURVE('',#375,#358,#336,.T.);
#460=EDGE_CURVE('',#376,#375,#171,.T.);
#461=EDGE_CURVE('',#377,#376,#337,.T.);
#462=EDGE_CURVE('',#355,#377,#172,.T.);
#463=EDGE_CURVE('',#372,#378,#173,.T.);
#464=EDGE_CURVE('',#378,#379,#174,.T.);
#465=EDGE_CURVE('',#379,#380,#175,.T.);
#466=EDGE_CURVE('',#380,#381,#176,.T.);
#467=EDGE_CURVE('',#381,#382,#177,.T.);
#468=EDGE_CURVE('',#382,#383,#178,.T.);
#469=EDGE_CURVE('',#383,#384,#179,.T.);
#470=EDGE_CURVE('',#384,#385,#180,.T.);
#471=EDGE_CURVE('',#385,#371,#181,.T.);
#472=EDGE_CURVE('',#367,#386,#182,.T.);
#473=EDGE_CURVE('',#387,#386,#183,.T.);
#474=EDGE_CURVE('',#387,#372,#184,.T.);
#475=EDGE_CURVE('',#365,#374,#185,.T.);
#476=EDGE_CURVE('',#388,#389,#186,.T.);
#477=EDGE_CURVE('',#388,#390,#187,.T.);
#478=EDGE_CURVE('',#390,#391,#188,.T.);
#479=EDGE_CURVE('',#369,#391,#189,.T.);
#480=EDGE_CURVE('',#389,#368,#190,.T.);
#481=EDGE_CURVE('',#392,#370,#191,.T.);
#482=EDGE_CURVE('',#392,#393,#192,.T.);
#483=EDGE_CURVE('',#394,#393,#193,.T.);
#484=EDGE_CURVE('',#386,#394,#194,.T.);
#485=EDGE_CURVE('',#373,#366,#195,.T.);
#486=EDGE_CURVE('',#361,#391,#196,.T.);
#487=EDGE_CURVE('',#395,#390,#197,.T.);
#488=EDGE_CURVE('',#396,#395,#198,.T.);
#489=EDGE_CURVE('',#393,#396,#199,.T.);
#490=EDGE_CURVE('',#392,#362,#200,.T.);
#491=EDGE_CURVE('',#389,#397,#201,.T.);
#492=EDGE_CURVE('',#397,#398,#202,.T.);
#493=EDGE_CURVE('',#398,#399,#203,.T.);
#494=EDGE_CURVE('',#399,#400,#204,.T.);
#495=EDGE_CURVE('',#400,#401,#205,.T.);
#496=EDGE_CURVE('',#401,#402,#206,.T.);
#497=EDGE_CURVE('',#402,#403,#207,.T.);
#498=EDGE_CURVE('',#403,#404,#208,.T.);
#499=EDGE_CURVE('',#404,#405,#209,.T.);
#500=EDGE_CURVE('',#405,#387,#210,.T.);
#501=EDGE_CURVE('',#394,#406,#211,.T.);
#502=EDGE_CURVE('',#406,#407,#212,.T.);
#503=EDGE_CURVE('',#407,#388,#213,.T.);
#504=EDGE_CURVE('',#371,#397,#214,.T.);
#505=EDGE_CURVE('',#381,#402,#215,.T.);
#506=EDGE_CURVE('',#382,#401,#216,.T.);
#507=EDGE_CURVE('',#352,#375,#217,.T.);
#508=EDGE_CURVE('',#376,#350,#218,.T.);
#509=EDGE_CURVE('',#348,#377,#219,.T.);
#510=EDGE_CURVE('',#398,#385,#220,.T.);
#511=EDGE_CURVE('',#378,#405,#221,.T.);
#512=EDGE_CURVE('',#379,#404,#222,.T.);
#513=EDGE_CURVE('',#380,#403,#223,.T.);
#514=EDGE_CURVE('',#406,#396,#224,.T.);
#515=EDGE_CURVE('',#407,#395,#225,.T.);
#516=EDGE_CURVE('',#383,#400,#226,.T.);
#517=EDGE_CURVE('',#384,#399,#227,.T.);
#518=ORIENTED_EDGE('',*,*,#408,.T.);
#519=ORIENTED_EDGE('',*,*,#409,.T.);
#520=ORIENTED_EDGE('',*,*,#410,.T.);
#521=ORIENTED_EDGE('',*,*,#411,.T.);
#522=ORIENTED_EDGE('',*,*,#412,.T.);
#523=ORIENTED_EDGE('',*,*,#413,.T.);
#524=ORIENTED_EDGE('',*,*,#410,.F.);
#525=ORIENTED_EDGE('',*,*,#414,.T.);
#526=ORIENTED_EDGE('',*,*,#415,.T.);
#527=ORIENTED_EDGE('',*,*,#416,.T.);
#528=ORIENTED_EDGE('',*,*,#412,.F.);
#529=ORIENTED_EDGE('',*,*,#417,.T.);
#530=ORIENTED_EDGE('',*,*,#418,.T.);
#531=ORIENTED_EDGE('',*,*,#419,.T.);
#532=ORIENTED_EDGE('',*,*,#415,.F.);
#533=ORIENTED_EDGE('',*,*,#420,.T.);
#534=ORIENTED_EDGE('',*,*,#421,.T.);
#535=ORIENTED_EDGE('',*,*,#422,.T.);
#536=ORIENTED_EDGE('',*,*,#418,.F.);
#537=ORIENTED_EDGE('',*,*,#423,.T.);
#538=ORIENTED_EDGE('',*,*,#424,.T.);
#539=ORIENTED_EDGE('',*,*,#425,.T.);
#540=ORIENTED_EDGE('',*,*,#421,.F.);
#541=ORIENTED_EDGE('',*,*,#426,.T.);
#542=ORIENTED_EDGE('',*,*,#427,.T.);
#543=ORIENTED_EDGE('',*,*,#428,.T.);
#544=ORIENTED_EDGE('',*,*,#424,.F.);
#545=ORIENTED_EDGE('',*,*,#429,.T.);
#546=ORIENTED_EDGE('',*,*,#408,.F.);
#547=ORIENTED_EDGE('',*,*,#430,.T.);
#548=ORIENTED_EDGE('',*,*,#427,.F.);
#549=ORIENTED_EDGE('',*,*,#431,.T.);
#550=ORIENTED_EDGE('',*,*,#420,.F.);
#551=ORIENTED_EDGE('',*,*,#432,.T.);
#552=ORIENTED_EDGE('',*,*,#433,.T.);
#553=ORIENTED_EDGE('',*,*,#434,.T.);
#554=ORIENTED_EDGE('',*,*,#417,.F.);
#555=ORIENTED_EDGE('',*,*,#435,.F.);
#556=ORIENTED_EDGE('',*,*,#436,.T.);
#557=ORIENTED_EDGE('',*,*,#432,.F.);
#558=ORIENTED_EDGE('',*,*,#414,.F.);
#559=ORIENTED_EDGE('',*,*,#437,.T.);
#560=ORIENTED_EDGE('',*,*,#438,.T.);
#561=ORIENTED_EDGE('',*,*,#435,.T.);
#562=ORIENTED_EDGE('',*,*,#409,.F.);
#563=ORIENTED_EDGE('',*,*,#439,.F.);
#564=ORIENTED_EDGE('',*,*,#440,.T.);
#565=ORIENTED_EDGE('',*,*,#437,.F.);
#566=ORIENTED_EDGE('',*,*,#411,.F.);
#567=ORIENTED_EDGE('',*,*,#413,.F.);
#568=ORIENTED_EDGE('',*,*,#416,.F.);
#569=ORIENTED_EDGE('',*,*,#419,.F.);
#570=ORIENTED_EDGE('',*,*,#422,.F.);
#571=ORIENTED_EDGE('',*,*,#425,.F.);
#572=ORIENTED_EDGE('',*,*,#428,.F.);
#573=ORIENTED_EDGE('',*,*,#430,.F.);
#574=ORIENTED_EDGE('',*,*,#441,.T.);
#575=ORIENTED_EDGE('',*,*,#442,.T.);
#576=ORIENTED_EDGE('',*,*,#443,.F.);
#577=ORIENTED_EDGE('',*,*,#444,.T.);
#578=ORIENTED_EDGE('',*,*,#445,.F.);
#579=ORIENTED_EDGE('',*,*,#446,.F.);
#580=ORIENTED_EDGE('',*,*,#447,.F.);
#581=ORIENTED_EDGE('',*,*,#448,.F.);
#582=ORIENTED_EDGE('',*,*,#449,.F.);
#583=ORIENTED_EDGE('',*,*,#445,.T.);
#584=ORIENTED_EDGE('',*,*,#450,.T.);
#585=ORIENTED_EDGE('',*,*,#451,.F.);
#586=ORIENTED_EDGE('',*,*,#452,.F.);
#587=ORIENTED_EDGE('',*,*,#441,.F.);
#588=ORIENTED_EDGE('',*,*,#453,.F.);
#589=ORIENTED_EDGE('',*,*,#454,.F.);
#590=ORIENTED_EDGE('',*,*,#455,.F.);
#591=ORIENTED_EDGE('',*,*,#456,.T.);
#592=ORIENTED_EDGE('',*,*,#457,.T.);
#593=ORIENTED_EDGE('',*,*,#458,.F.);
#594=ORIENTED_EDGE('',*,*,#440,.F.);
#595=ORIENTED_EDGE('',*,*,#459,.F.);
#596=ORIENTED_EDGE('',*,*,#460,.F.);
#597=ORIENTED_EDGE('',*,*,#461,.F.);
#598=ORIENTED_EDGE('',*,*,#462,.F.);
#599=ORIENTED_EDGE('',*,*,#433,.F.);
#600=ORIENTED_EDGE('',*,*,#436,.F.);
#601=ORIENTED_EDGE('',*,*,#438,.F.);
#602=ORIENTED_EDGE('',*,*,#455,.T.);
#603=ORIENTED_EDGE('',*,*,#463,.T.);
#604=ORIENTED_EDGE('',*,*,#464,.T.);
#605=ORIENTED_EDGE('',*,*,#465,.T.);
#606=ORIENTED_EDGE('',*,*,#466,.T.);
#607=ORIENTED_EDGE('',*,*,#467,.T.);
#608=ORIENTED_EDGE('',*,*,#468,.T.);
#609=ORIENTED_EDGE('',*,*,#469,.T.);
#610=ORIENTED_EDGE('',*,*,#470,.T.);
#611=ORIENTED_EDGE('',*,*,#471,.T.);
#612=ORIENTED_EDGE('',*,*,#472,.T.);
#613=ORIENTED_EDGE('',*,*,#473,.F.);
#614=ORIENTED_EDGE('',*,*,#474,.T.);
#615=ORIENTED_EDGE('',*,*,#458,.T.);
#616=ORIENTED_EDGE('',*,*,#475,.F.);
#617=ORIENTED_EDGE('',*,*,#446,.T.);
#618=ORIENTED_EDGE('',*,*,#449,.T.);
#619=ORIENTED_EDGE('',*,*,#476,.F.);
#620=ORIENTED_EDGE('',*,*,#477,.T.);
#621=ORIENTED_EDGE('',*,*,#478,.T.);
#622=ORIENTED_EDGE('',*,*,#479,.F.);
#623=ORIENTED_EDGE('',*,*,#451,.T.);
#624=ORIENTED_EDGE('',*,*,#480,.F.);
#625=ORIENTED_EDGE('',*,*,#481,.F.);
#626=ORIENTED_EDGE('',*,*,#482,.T.);
#627=ORIENTED_EDGE('',*,*,#483,.F.);
#628=ORIENTED_EDGE('',*,*,#484,.F.);
#629=ORIENTED_EDGE('',*,*,#472,.F.);
#630=ORIENTED_EDGE('',*,*,#454,.T.);
#631=ORIENTED_EDGE('',*,*,#475,.T.);
#632=ORIENTED_EDGE('',*,*,#457,.F.);
#633=ORIENTED_EDGE('',*,*,#485,.T.);
#634=ORIENTED_EDGE('',*,*,#447,.T.);
#635=ORIENTED_EDGE('',*,*,#486,.T.);
#636=ORIENTED_EDGE('',*,*,#478,.F.);
#637=ORIENTED_EDGE('',*,*,#487,.F.);
#638=ORIENTED_EDGE('',*,*,#488,.F.);
#639=ORIENTED_EDGE('',*,*,#489,.F.);
#640=ORIENTED_EDGE('',*,*,#482,.F.);
#641=ORIENTED_EDGE('',*,*,#490,.T.);
#642=ORIENTED_EDGE('',*,*,#443,.T.);
#643=ORIENTED_EDGE('',*,*,#476,.T.);
#644=ORIENTED_EDGE('',*,*,#491,.T.);
#645=ORIENTED_EDGE('',*,*,#492,.T.);
#646=ORIENTED_EDGE('',*,*,#493,.T.);
#647=ORIENTED_EDGE('',*,*,#494,.T.);
#648=ORIENTED_EDGE('',*,*,#495,.T.);
#649=ORIENTED_EDGE('',*,*,#496,.T.);
#650=ORIENTED_EDGE('',*,*,#497,.T.);
#651=ORIENTED_EDGE('',*,*,#498,.T.);
#652=ORIENTED_EDGE('',*,*,#499,.T.);
#653=ORIENTED_EDGE('',*,*,#500,.T.);
#654=ORIENTED_EDGE('',*,*,#473,.T.);
#655=ORIENTED_EDGE('',*,*,#484,.T.);
#656=ORIENTED_EDGE('',*,*,#501,.T.);
#657=ORIENTED_EDGE('',*,*,#502,.T.);
#658=ORIENTED_EDGE('',*,*,#503,.T.);
#659=ORIENTED_EDGE('',*,*,#480,.T.);
#660=ORIENTED_EDGE('',*,*,#450,.F.);
#661=ORIENTED_EDGE('',*,*,#448,.T.);
#662=ORIENTED_EDGE('',*,*,#485,.F.);
#663=ORIENTED_EDGE('',*,*,#456,.F.);
#664=ORIENTED_EDGE('',*,*,#504,.T.);
#665=ORIENTED_EDGE('',*,*,#491,.F.);
#666=ORIENTED_EDGE('',*,*,#505,.T.);
#667=ORIENTED_EDGE('',*,*,#496,.F.);
#668=ORIENTED_EDGE('',*,*,#506,.F.);
#669=ORIENTED_EDGE('',*,*,#467,.F.);
#670=ORIENTED_EDGE('',*,*,#431,.F.);
#671=ORIENTED_EDGE('',*,*,#507,.T.);
#672=ORIENTED_EDGE('',*,*,#459,.T.);
#673=ORIENTED_EDGE('',*,*,#439,.T.);
#674=ORIENTED_EDGE('',*,*,#429,.F.);
#675=ORIENTED_EDGE('',*,*,#508,.F.);
#676=ORIENTED_EDGE('',*,*,#460,.T.);
#677=ORIENTED_EDGE('',*,*,#507,.F.);
#678=ORIENTED_EDGE('',*,*,#426,.F.);
#679=ORIENTED_EDGE('',*,*,#509,.T.);
#680=ORIENTED_EDGE('',*,*,#461,.T.);
#681=ORIENTED_EDGE('',*,*,#508,.T.);
#682=ORIENTED_EDGE('',*,*,#423,.F.);
#683=ORIENTED_EDGE('',*,*,#434,.F.);
#684=ORIENTED_EDGE('',*,*,#462,.T.);
#685=ORIENTED_EDGE('',*,*,#509,.F.);
#686=ORIENTED_EDGE('',*,*,#453,.T.);
#687=ORIENTED_EDGE('',*,*,#444,.F.);
#688=ORIENTED_EDGE('',*,*,#490,.F.);
#689=ORIENTED_EDGE('',*,*,#481,.T.);
#690=ORIENTED_EDGE('',*,*,#504,.F.);
#691=ORIENTED_EDGE('',*,*,#471,.F.);
#692=ORIENTED_EDGE('',*,*,#510,.F.);
#693=ORIENTED_EDGE('',*,*,#492,.F.);
#694=ORIENTED_EDGE('',*,*,#511,.F.);
#695=ORIENTED_EDGE('',*,*,#463,.F.);
#696=ORIENTED_EDGE('',*,*,#474,.F.);
#697=ORIENTED_EDGE('',*,*,#500,.F.);
#698=ORIENTED_EDGE('',*,*,#452,.T.);
#699=ORIENTED_EDGE('',*,*,#479,.T.);
#700=ORIENTED_EDGE('',*,*,#486,.F.);
#701=ORIENTED_EDGE('',*,*,#442,.F.);
#702=ORIENTED_EDGE('',*,*,#465,.F.);
#703=ORIENTED_EDGE('',*,*,#512,.T.);
#704=ORIENTED_EDGE('',*,*,#498,.F.);
#705=ORIENTED_EDGE('',*,*,#513,.F.);
#706=ORIENTED_EDGE('',*,*,#499,.F.);
#707=ORIENTED_EDGE('',*,*,#512,.F.);
#708=ORIENTED_EDGE('',*,*,#464,.F.);
#709=ORIENTED_EDGE('',*,*,#511,.T.);
#710=ORIENTED_EDGE('',*,*,#514,.F.);
#711=ORIENTED_EDGE('',*,*,#501,.F.);
#712=ORIENTED_EDGE('',*,*,#483,.T.);
#713=ORIENTED_EDGE('',*,*,#489,.T.);
#714=ORIENTED_EDGE('',*,*,#515,.F.);
#715=ORIENTED_EDGE('',*,*,#502,.F.);
#716=ORIENTED_EDGE('',*,*,#514,.T.);
#717=ORIENTED_EDGE('',*,*,#488,.T.);
#718=ORIENTED_EDGE('',*,*,#477,.F.);
#719=ORIENTED_EDGE('',*,*,#503,.F.);
#720=ORIENTED_EDGE('',*,*,#515,.T.);
#721=ORIENTED_EDGE('',*,*,#487,.T.);
#722=ORIENTED_EDGE('',*,*,#469,.F.);
#723=ORIENTED_EDGE('',*,*,#516,.T.);
#724=ORIENTED_EDGE('',*,*,#494,.F.);
#725=ORIENTED_EDGE('',*,*,#517,.F.);
#726=ORIENTED_EDGE('',*,*,#468,.F.);
#727=ORIENTED_EDGE('',*,*,#506,.T.);
#728=ORIENTED_EDGE('',*,*,#495,.F.);
#729=ORIENTED_EDGE('',*,*,#516,.F.);
#730=ORIENTED_EDGE('',*,*,#466,.F.);
#731=ORIENTED_EDGE('',*,*,#513,.T.);
#732=ORIENTED_EDGE('',*,*,#497,.F.);
#733=ORIENTED_EDGE('',*,*,#505,.F.);
#734=ORIENTED_EDGE('',*,*,#510,.T.);
#735=ORIENTED_EDGE('',*,*,#470,.F.);
#736=ORIENTED_EDGE('',*,*,#517,.T.);
#737=ORIENTED_EDGE('',*,*,#493,.F.);
#738=CYLINDRICAL_SURFACE('',#803,3.);
#739=CYLINDRICAL_SURFACE('',#809,3.);
#740=CYLINDRICAL_SURFACE('',#814,3.);
#741=CYLINDRICAL_SURFACE('',#819,3.);
#742=CYLINDRICAL_SURFACE('',#823,5.);
#743=CYLINDRICAL_SURFACE('',#826,5.);
#744=CYLINDRICAL_SURFACE('',#845,5.);
#745=CYLINDRICAL_SURFACE('',#847,5.);
#746=ADVANCED_FACE('',(#51),#738,.T.);
#747=ADVANCED_FACE('',(#52),#47,.F.);
#748=ADVANCED_FACE('',(#53),#739,.T.);
#749=ADVANCED_FACE('',(#54),#48,.F.);
#750=ADVANCED_FACE('',(#55),#740,.T.);
#751=ADVANCED_FACE('',(#56),#49,.F.);
#752=ADVANCED_FACE('',(#57),#741,.T.);
#753=ADVANCED_FACE('',(#58),#50,.F.);
#754=ADVANCED_FACE('',(#59),#742,.T.);
#755=ADVANCED_FACE('',(#60),#16,.T.);
#756=ADVANCED_FACE('',(#61),#743,.T.);
#757=ADVANCED_FACE('',(#62),#17,.T.);
#758=ADVANCED_FACE('',(#63),#18,.T.);
#759=ADVANCED_FACE('',(#64),#19,.T.);
#760=ADVANCED_FACE('',(#65),#20,.F.);
#761=ADVANCED_FACE('',(#66),#21,.F.);
#762=ADVANCED_FACE('',(#67),#22,.F.);
#763=ADVANCED_FACE('',(#68,#15),#23,.F.);
#764=ADVANCED_FACE('',(#69),#24,.T.);
#765=ADVANCED_FACE('',(#70),#25,.T.);
#766=ADVANCED_FACE('',(#71),#26,.T.);
#767=ADVANCED_FACE('',(#72),#27,.F.);
#768=ADVANCED_FACE('',(#73),#28,.F.);
#769=ADVANCED_FACE('',(#74),#29,.T.);
#770=ADVANCED_FACE('',(#75),#30,.T.);
#771=ADVANCED_FACE('',(#76),#31,.T.);
#772=ADVANCED_FACE('',(#77),#744,.T.);
#773=ADVANCED_FACE('',(#78),#32,.T.);
#774=ADVANCED_FACE('',(#79),#745,.T.);
#775=ADVANCED_FACE('',(#80),#33,.T.);
#776=ADVANCED_FACE('',(#81),#34,.T.);
#777=ADVANCED_FACE('',(#82),#35,.F.);
#778=ADVANCED_FACE('',(#83),#36,.F.);
#779=ADVANCED_FACE('',(#84),#37,.T.);
#780=ADVANCED_FACE('',(#85),#38,.T.);
#781=ADVANCED_FACE('',(#86),#39,.T.);
#782=ADVANCED_FACE('',(#87),#40,.T.);
#783=ADVANCED_FACE('',(#88),#41,.T.);
#784=ADVANCED_FACE('',(#89),#42,.T.);
#785=ADVANCED_FACE('',(#90),#43,.T.);
#786=ADVANCED_FACE('',(#91),#44,.T.);
#787=ADVANCED_FACE('',(#92),#45,.T.);
#788=ADVANCED_FACE('',(#93),#46,.T.);
#789=CLOSED_SHELL('',(#746,#747,#748,#749,#750,#751,#752,#753,#754,#755,
#756,#757,#758,#759,#760,#761,#762,#763,#764,#765,#766,#767,#768,#769,#770,
#771,#772,#773,#774,#775,#776,#777,#778,#779,#780,#781,#782,#783,#784,#785,
#786,#787,#788));
#790=DERIVED_UNIT_ELEMENT(#792,1.);
#791=DERIVED_UNIT_ELEMENT(#1333,-3.);
#792=(
MASS_UNIT()
NAMED_UNIT(*)
SI_UNIT(.KILO.,.GRAM.)
);
#793=DERIVED_UNIT((#790,#791));
#794=MEASURE_REPRESENTATION_ITEM('density measure',
POSITIVE_RATIO_MEASURE(7850.),#793);
#795=PROPERTY_DEFINITION_REPRESENTATION(#800,#797);
#796=PROPERTY_DEFINITION_REPRESENTATION(#801,#798);
#797=REPRESENTATION('material name',(#799),#1330);
#798=REPRESENTATION('density',(#794),#1330);
#799=DESCRIPTIVE_REPRESENTATION_ITEM('Steel','Steel');
#800=PROPERTY_DEFINITION('material property','material name',#1340);
#801=PROPERTY_DEFINITION('material property','density of part',#1340);
#802=AXIS2_PLACEMENT_3D('',#1072,#862,#863);
#803=AXIS2_PLACEMENT_3D('',#1073,#864,#865);
#804=AXIS2_PLACEMENT_3D('',#1076,#866,#867);
#805=AXIS2_PLACEMENT_3D('',#1080,#869,#870);
#806=AXIS2_PLACEMENT_3D('',#1093,#872,#873);
#807=AXIS2_PLACEMENT_3D('',#1094,#874,#875);
#808=AXIS2_PLACEMENT_3D('',#1095,#876,#877);
#809=AXIS2_PLACEMENT_3D('',#1096,#878,#879);
#810=AXIS2_PLACEMENT_3D('',#1099,#880,#881);
#811=AXIS2_PLACEMENT_3D('',#1113,#884,#885);
#812=AXIS2_PLACEMENT_3D('',#1114,#886,#887);
#813=AXIS2_PLACEMENT_3D('',#1115,#888,#889);
#814=AXIS2_PLACEMENT_3D('',#1116,#890,#891);
#815=AXIS2_PLACEMENT_3D('',#1119,#892,#893);
#816=AXIS2_PLACEMENT_3D('',#1133,#896,#897);
#817=AXIS2_PLACEMENT_3D('',#1134,#898,#899);
#818=AXIS2_PLACEMENT_3D('',#1135,#900,#901);
#819=AXIS2_PLACEMENT_3D('',#1136,#902,#903);
#820=AXIS2_PLACEMENT_3D('',#1139,#904,#905);
#821=AXIS2_PLACEMENT_3D('',#1151,#908,#909);
#822=AXIS2_PLACEMENT_3D('',#1152,#910,#911);
#823=AXIS2_PLACEMENT_3D('',#1153,#912,#913);
#824=AXIS2_PLACEMENT_3D('',#1157,#915,#916);
#825=AXIS2_PLACEMENT_3D('',#1159,#918,#919);
#826=AXIS2_PLACEMENT_3D('',#1163,#922,#923);
#827=AXIS2_PLACEMENT_3D('',#1166,#925,#926);
#828=AXIS2_PLACEMENT_3D('',#1167,#927,#928);
#829=AXIS2_PLACEMENT_3D('',#1171,#931,#932);
#830=AXIS2_PLACEMENT_3D('',#1172,#933,#934);
#831=AXIS2_PLACEMENT_3D('',#1181,#939,#940);
#832=AXIS2_PLACEMENT_3D('',#1190,#945,#946);
#833=AXIS2_PLACEMENT_3D('',#1201,#953,#954);
#834=AXIS2_PLACEMENT_3D('',#1210,#959,#960);
#835=AXIS2_PLACEMENT_3D('',#1212,#961,#962);
#836=AXIS2_PLACEMENT_3D('',#1216,#964,#965);
#837=AXIS2_PLACEMENT_3D('',#1235,#976,#977);
#838=AXIS2_PLACEMENT_3D('',#1242,#982,#983);
#839=AXIS2_PLACEMENT_3D('',#1252,#989,#990);
#840=AXIS2_PLACEMENT_3D('',#1260,#995,#996);
#841=AXIS2_PLACEMENT_3D('',#1262,#998,#999);
#842=AXIS2_PLACEMENT_3D('',#1270,#1005,#1006);
#843=AXIS2_PLACEMENT_3D('',#1295,#1020,#1021);
#844=AXIS2_PLACEMENT_3D('',#1297,#1023,#1024);
#845=AXIS2_PLACEMENT_3D('',#1300,#1027,#1028);
#846=AXIS2_PLACEMENT_3D('',#1302,#1030,#1031);
#847=AXIS2_PLACEMENT_3D('',#1304,#1033,#1034);
#848=AXIS2_PLACEMENT_3D('',#1306,#1036,#1037);
#849=AXIS2_PLACEMENT_3D('',#1307,#1038,#1039);
#850=AXIS2_PLACEMENT_3D('',#1308,#1040,#1041);
#851=AXIS2_PLACEMENT_3D('',#1310,#1043,#1044);
#852=AXIS2_PLACEMENT_3D('',#1312,#1046,#1047);
#853=AXIS2_PLACEMENT_3D('',#1313,#1048,#1049);
#854=AXIS2_PLACEMENT_3D('',#1316,#1052,#1053);
#855=AXIS2_PLACEMENT_3D('',#1317,#1054,#1055);
#856=AXIS2_PLACEMENT_3D('',#1319,#1057,#1058);
#857=AXIS2_PLACEMENT_3D('',#1321,#1060,#1061);
#858=AXIS2_PLACEMENT_3D('',#1322,#1062,#1063);
#859=AXIS2_PLACEMENT_3D('',#1325,#1066,#1067);
#860=AXIS2_PLACEMENT_3D('',#1326,#1068,#1069);
#861=AXIS2_PLACEMENT_3D('',#1327,#1070,#1071);
#862=DIRECTION('axis',(0.,0.,1.));
#863=DIRECTION('refdir',(1.,0.,0.));
#864=DIRECTION('center_axis',(-1.,8.81738209284044E-18,3.29827250501072E-19));
#865=DIRECTION('ref_axis',(0.,0.680180700270747,0.733044483629197));
#866=DIRECTION('center_axis',(-1.,0.,0.));
#867=DIRECTION('ref_axis',(0.,-0.0373803396919363,0.999301110879256));
#868=DIRECTION('',(-1.,8.81738209284044E-18,3.29827250501072E-19));
#869=DIRECTION('center_axis',(1.,-5.91705120976878E-15,-2.21336073569586E-16));
#870=DIRECTION('ref_axis',(5.9211894646675E-15,0.999301110879256,0.0373803396919363));
#871=DIRECTION('',(1.,-8.81738209284044E-18,-3.29827250501072E-19));
#872=DIRECTION('center_axis',(0.,0.999301110879256,0.0373803396919362));
#873=DIRECTION('ref_axis',(-1.,0.,0.));
#874=DIRECTION('center_axis',(0.,0.0373803396919363,-0.999301110879256));
#875=DIRECTION('ref_axis',(-0.707106781186546,0.706612591949973,0.0264318916792249));
#876=DIRECTION('center_axis',(0.,-0.0373803396919363,0.999301110879256));
#877=DIRECTION('ref_axis',(-0.707106781186546,0.706612591949973,0.0264318916792248));
#878=DIRECTION('center_axis',(-9.33761588199952E-17,-0.999301110879256,
-0.0373803396919363));
#879=DIRECTION('ref_axis',(-0.707106781186547,-0.0264318916792248,0.706612591949972));
#880=DIRECTION('center_axis',(2.97235910948249E-15,0.999301110879256,0.0373803396919362));
#881=DIRECTION('ref_axis',(-1.,2.96059473233375E-15,3.70074341541719E-16));
#882=DIRECTION('',(9.33761588199952E-17,0.999301110879256,0.0373803396919363));
#883=DIRECTION('',(-9.33761588199952E-17,-0.999301110879256,-0.0373803396919363));
#884=DIRECTION('center_axis',(-1.,1.84907850305274E-16,6.91675229904953E-18));
#885=DIRECTION('ref_axis',(-1.85037170770859E-16,-0.999301110879256,-0.0373803396919362));
#886=DIRECTION('center_axis',(0.,0.0373803396919363,-0.999301110879256));
#887=DIRECTION('ref_axis',(-0.707106781186547,-0.706612591949973,-0.0264318916792249));
#888=DIRECTION('center_axis',(0.,-0.0373803396919363,0.999301110879256));
#889=DIRECTION('ref_axis',(-0.707106781186547,-0.706612591949973,-0.026431891679225));
#890=DIRECTION('center_axis',(1.,-1.19324203839911E-32,-4.46349876373215E-34));
#891=DIRECTION('ref_axis',(0.,-0.733044483629198,0.680180700270746));
#892=DIRECTION('center_axis',(-1.,0.,0.));
#893=DIRECTION('ref_axis',(0.,-0.999301110879256,-0.0373803396919362));
#894=DIRECTION('',(-1.,1.19324203839911E-32,4.46349876373215E-34));
#895=DIRECTION('',(1.,-1.19324203839911E-32,-4.46349876373215E-34));
#896=DIRECTION('center_axis',(2.97235910948252E-15,-0.999301110879256,-0.0373803396919333));
#897=DIRECTION('ref_axis',(1.,2.96059473233378E-15,3.70074341541722E-16));
#898=DIRECTION('center_axis',(0.,0.0373803396919363,-0.999301110879256));
#899=DIRECTION('ref_axis',(0.707106781186546,-0.706612591949973,-0.0264318916792249));
#900=DIRECTION('center_axis',(0.,-0.0373803396919363,0.999301110879256));
#901=DIRECTION('ref_axis',(0.707106781186546,-0.706612591949973,-0.026431891679225));
#902=DIRECTION('center_axis',(0.,0.999301110879256,0.0373803396919363));
#903=DIRECTION('ref_axis',(0.707106781186544,-0.0264318916792228,0.706612591949976));
#904=DIRECTION('center_axis',(-3.88306485641075E-15,-0.999301110879256,
-0.0373803396919362));
#905=DIRECTION('ref_axis',(1.,-3.88578058618804E-15,0.));
#906=DIRECTION('',(0.,-0.999301110879256,-0.0373803396919363));
#907=DIRECTION('',(0.,0.999301110879256,0.0373803396919363));
#908=DIRECTION('center_axis',(0.,0.0373803396919363,-0.999301110879256));
#909=DIRECTION('ref_axis',(0.707106781186547,0.706612591949973,0.0264318916792249));
#910=DIRECTION('center_axis',(0.,-0.0373803396919363,0.999301110879256));
#911=DIRECTION('ref_axis',(0.707106781186547,0.706612591949973,0.0264318916792248));
#912=DIRECTION('center_axis',(0.,-0.0373803396919363,0.999301110879256));
#913=DIRECTION('ref_axis',(-0.707106781186547,-0.706612591949973,-0.0264318916792247));
#914=DIRECTION('',(0.,0.0373803396919363,-0.999301110879256));
#915=DIRECTION('center_axis',(6.61766158131425E-18,-0.0373803396919363,
0.999301110879256));
#916=DIRECTION('ref_axis',(-0.707106781186547,-0.706612591949973,-0.0264318916792247));
#917=DIRECTION('',(0.,-0.0373803396919363,0.999301110879256));
#918=DIRECTION('center_axis',(-1.,9.33108992384591E-17,3.49043253581962E-18));
#919=DIRECTION('ref_axis',(-9.33761588199952E-17,-0.999301110879256,-0.0373803396919363));
#920=DIRECTION('',(0.,-0.0373803396919363,0.999301110879256));
#921=DIRECTION('',(-9.33761588199952E-17,-0.999301110879256,-0.0373803396919363));
#922=DIRECTION('center_axis',(0.,-0.0373803396919363,0.999301110879256));
#923=DIRECTION('ref_axis',(-0.707106781186546,0.706612591949973,0.0264318916792247));
#924=DIRECTION('',(0.,0.0373803396919363,-0.999301110879256));
#925=DIRECTION('center_axis',(6.61766158131425E-18,-0.0373803396919363,
0.999301110879256));
#926=DIRECTION('ref_axis',(-0.707106781186546,0.706612591949973,0.0264318916792247));
#927=DIRECTION('center_axis',(8.8235487750857E-18,0.999301110879256,0.0373803396919363));
#928=DIRECTION('ref_axis',(-1.,8.57001165496464E-18,6.94286382013138E-18));
#929=DIRECTION('',(0.,-0.0373803396919363,0.999301110879256));
#930=DIRECTION('',(-1.,8.57001165496464E-18,6.94286382013138E-18));
#931=DIRECTION('center_axis',(0.,-0.0373803396919363,0.999301110879256));
#932=DIRECTION('ref_axis',(1.,0.,0.));
#933=DIRECTION('center_axis',(0.,-0.999301110879265,-0.0373803396917005));
#934=DIRECTION('ref_axis',(0.,0.0373803396917005,-0.999301110879265));
#935=DIRECTION('',(1.,0.,0.));
#936=DIRECTION('',(-4.44089209850063E-13,-0.0373803396917011,0.999301110879265));
#937=DIRECTION('',(1.,0.,0.));
#938=DIRECTION('',(0.,0.0373803396919362,-0.999301110879256));
#939=DIRECTION('center_axis',(0.,-0.999301110879265,-0.0373803396917016));
#940=DIRECTION('ref_axis',(0.,0.0373803396917016,-0.999301110879265));
#941=DIRECTION('',(1.,0.,0.));
#942=DIRECTION('',(4.44089209850063E-13,0.0373803396917011,-0.999301110879265));
#943=DIRECTION('',(-1.,1.03544442838217E-25,3.87323340719552E-27));
#944=DIRECTION('',(0.,-0.0373803396919362,0.999301110879256));
#945=DIRECTION('center_axis',(0.,-0.0373803396919363,0.999301110879256));
#946=DIRECTION('ref_axis',(1.,0.,0.));
#947=DIRECTION('',(1.23377845576566E-27,0.999301110879256,0.0373803396919363));
#948=DIRECTION('',(0.,0.999301110879256,0.0373803396919363));
#949=DIRECTION('',(-1.,1.04225034643208E-16,-2.78628267583292E-15));
#950=DIRECTION('',(-1.04527225385405E-25,0.999301110879256,0.0373803396919363));
#951=DIRECTION('',(0.,-0.999301110879265,-0.0373803396917005));
#952=DIRECTION('',(-1.,1.04225034643208E-16,-2.78628267583292E-15));
#953=DIRECTION('center_axis',(0.,0.999301110879256,0.0373803396919363));
#954=DIRECTION('ref_axis',(-1.,0.,0.));
#955=DIRECTION('',(-1.,-2.47370437875803E-19,6.61303656963031E-18));
#956=DIRECTION('',(0.,-0.0373803396919363,0.999301110879256));
#957=DIRECTION('',(-1.,0.,0.));
#958=DIRECTION('',(0.,-0.0373803396919363,0.999301110879256));
#959=DIRECTION('center_axis',(6.61766158131425E-18,-0.0373803396919363,
0.999301110879256));
#960=DIRECTION('ref_axis',(1.,2.47370437875791E-19,-6.61303656963031E-18));
#961=DIRECTION('center_axis',(6.61766158131425E-18,-0.0373803396919363,
0.999301110879256));
#962=DIRECTION('ref_axis',(0.707106781186548,0.706612591949972,0.0264318916792247));
#963=DIRECTION('',(0.,0.999301110879256,0.0373803396919363));
#964=DIRECTION('center_axis',(6.61766158131425E-18,-0.0373803396919363,
0.999301110879256));
#965=DIRECTION('ref_axis',(0.707106781186547,-0.706612591949973,-0.026431891679225));
#966=DIRECTION('',(1.,2.47370437875792E-19,-6.61303656963032E-18));
#967=DIRECTION('',(-1.,6.72454890748126E-18,2.51541722209754E-19));
#968=DIRECTION('',(0.,0.999301110879256,0.0373803396919363));
#969=DIRECTION('',(-1.,7.59245362109914E-18,6.90629681247307E-18));
#970=DIRECTION('',(9.46344042793086E-17,-0.999301110879256,-0.0373803396919363));
#971=DIRECTION('',(1.,2.47370437875803E-19,-6.61303656963031E-18));
#972=DIRECTION('',(0.,0.999301110879256,0.0373803396919363));
#973=DIRECTION('',(-1.,7.59245362109914E-18,6.90629681247307E-18));
#974=DIRECTION('',(0.,-0.999301110879256,-0.0373803396919363));
#975=DIRECTION('',(-1.,6.72454890748126E-18,2.51541722209754E-19));
#976=DIRECTION('center_axis',(1.,-1.66002055177201E-14,4.43778840732659E-13));
#977=DIRECTION('ref_axis',(0.,-0.999301110879256,-0.037380339691939));
#978=DIRECTION('',(4.44089209850063E-13,0.0373803396919363,-0.999301110879256));
#979=DIRECTION('',(0.,-0.999301110879256,-0.037380339691939));
#980=DIRECTION('',(-4.43778840732659E-13,2.9842125186121E-30,1.));
#981=DIRECTION('',(1.23693389938655E-27,0.999301110879256,0.0373803396919392));
#982=DIRECTION('center_axis',(-1.48090491690192E-17,-0.999301110879256,
-0.0373803396919362));
#983=DIRECTION('ref_axis',(-1.,3.49972603113193E-17,-5.39421313556506E-16));
#984=DIRECTION('',(-1.,3.49972603113193E-17,-5.39421313556506E-16));
#985=DIRECTION('',(0.,-0.0373803396919392,0.999301110879256));
#986=DIRECTION('',(-1.,1.94174371949504E-17,-5.1909283648187E-16));
#987=DIRECTION('',(-4.44089209850063E-13,-0.0373803396919362,0.999301110879256));
#988=DIRECTION('',(-4.44089209850063E-13,-0.0373803396919363,0.999301110879256));
#989=DIRECTION('center_axis',(-1.48090491690192E-17,-0.999301110879256,
-0.0373803396919362));
#990=DIRECTION('ref_axis',(-1.,3.49972603113193E-17,-5.39421313556506E-16));
#991=DIRECTION('',(0.,0.0373803396919362,-0.999301110879256));
#992=DIRECTION('',(-1.,1.94174371949504E-17,-5.1909283648187E-16));
#993=DIRECTION('',(0.,-0.0373803396919392,0.999301110879256));
#994=DIRECTION('',(-1.,-4.84071350803458E-30,-1.81074065976437E-31));
#995=DIRECTION('center_axis',(0.,-0.0373803396919392,0.999301110879256));
#996=DIRECTION('ref_axis',(1.,0.,0.));
#997=DIRECTION('',(0.,-0.999301110879265,-0.0373803396917016));
#998=DIRECTION('center_axis',(0.,-0.0373803396919392,0.999301110879256));
#999=DIRECTION('ref_axis',(1.,0.,0.));
#1000=DIRECTION('',(-1.04514603610921E-25,0.999301110879256,0.0373803396919392));
#1001=DIRECTION('',(0.,0.999301110879256,0.0373803396919363));
#1002=DIRECTION('',(1.,0.,0.));
#1003=DIRECTION('',(0.,-0.999301110879256,-0.0373803396919345));
#1004=DIRECTION('',(0.,-0.999301110879256,-0.0373803396919392));
#1005=DIRECTION('center_axis',(0.,0.0373803396919362,-0.999301110879256));
#1006=DIRECTION('ref_axis',(-1.,0.,0.));
#1007=DIRECTION('',(-1.0450829272368E-25,0.999301110879256,0.0373803396919362));
#1008=DIRECTION('',(1.,-6.72454890748126E-18,-2.51541722209754E-19));
#1009=DIRECTION('',(0.,0.999301110879255,0.0373803396919661));
#1010=DIRECTION('',(1.,-2.84226365261343E-17,5.49953942777861E-16));
#1011=DIRECTION('',(0.,-0.999301110879256,-0.0373803396919363));
#1012=DIRECTION('',(-1.,2.38141640273357E-33,-6.36632003970582E-32));
#1013=DIRECTION('',(-9.46344042793086E-17,0.999301110879256,0.0373803396919345));
#1014=DIRECTION('',(1.,-2.84226365261343E-17,5.49953942777861E-16));
#1015=DIRECTION('',(0.,-0.999301110879256,-0.0373803396919362));
#1016=DIRECTION('',(1.,-6.72454890748126E-18,-2.51541722209754E-19));
#1017=DIRECTION('',(1.95905196956603E-16,-0.999301110879256,-0.0373803396919345));
#1018=DIRECTION('',(1.,-2.4205120957807E-33,6.47083586223331E-32));
#1019=DIRECTION('',(0.,0.999301110879256,0.0373803396919364));
#1020=DIRECTION('center_axis',(-1.,1.71044996548107E-14,-4.43759976862756E-13));
#1021=DIRECTION('ref_axis',(5.04646829375071E-16,0.999301110879265,0.037380339691701));
#1022=DIRECTION('',(4.43759976862756E-13,-2.98408566759636E-30,-1.));
#1023=DIRECTION('center_axis',(1.10502784174052E-46,-0.999301110879256,
-0.0373803396919362));
#1024=DIRECTION('ref_axis',(-1.,2.38141640273357E-33,-6.36632003970582E-32));
#1025=DIRECTION('',(0.,0.0373803396919362,-0.999301110879256));
#1026=DIRECTION('',(0.,0.0373803396919362,-0.999301110879256));
#1027=DIRECTION('center_axis',(0.,-0.0373803396919363,0.999301110879256));
#1028=DIRECTION('ref_axis',(0.707106781186548,0.706612591949972,0.0264318916792247));
#1029=DIRECTION('',(0.,0.0373803396919363,-0.999301110879256));
#1030=DIRECTION('center_axis',(1.,0.,0.));
#1031=DIRECTION('ref_axis',(0.,0.999301110879256,0.0373803396919363));
#1032=DIRECTION('',(0.,-0.0373803396919363,0.999301110879256));
#1033=DIRECTION('center_axis',(0.,-0.0373803396919363,0.999301110879256));
#1034=DIRECTION('ref_axis',(0.707106781186547,-0.706612591949973,-0.026431891679225));
#1035=DIRECTION('',(0.,0.0373803396919363,-0.999301110879256));
#1036=DIRECTION('center_axis',(-1.19407656552009E-32,-0.999301110879256,
-0.0373803396919363));
#1037=DIRECTION('ref_axis',(1.,2.47370437875792E-19,-6.61303656963032E-18));
#1038=DIRECTION('center_axis',(-1.,1.70838881779272E-14,-4.43760747865609E-13));
#1039=DIRECTION('ref_axis',(4.84020937166281E-16,0.999301110879255,0.037380339691957));
#1040=DIRECTION('center_axis',(-6.72454890748126E-18,-1.,0.));
#1041=DIRECTION('ref_axis',(1.,-6.72454890748126E-18,0.));
#1042=DIRECTION('',(-4.43778840732663E-13,2.98421251861213E-30,1.));
#1043=DIRECTION('center_axis',(-6.72454890748126E-18,-1.,0.));
#1044=DIRECTION('ref_axis',(1.,-6.72454890748126E-18,0.));
#1045=DIRECTION('',(4.43760747865609E-13,-2.98409085224275E-30,-1.));
#1046=DIRECTION('center_axis',(1.,-1.66002055176145E-14,4.43778840732663E-13));
#1047=DIRECTION('ref_axis',(0.,-0.999301110879265,-0.037380339691701));
#1048=DIRECTION('center_axis',(7.84530705872719E-18,0.999301110879256,0.0373803396919362));
#1049=DIRECTION('ref_axis',(1.,-2.84226365261343E-17,5.49953942777861E-16));
#1050=DIRECTION('',(0.,0.0373803396919362,-0.999301110879256));
#1051=DIRECTION('',(0.,0.0373803396919362,-0.999301110879256));
#1052=DIRECTION('center_axis',(1.,0.,0.));
#1053=DIRECTION('ref_axis',(0.,-0.999301110879255,-0.0373803396919723));
#1054=DIRECTION('center_axis',(1.,1.95768280945752E-16,7.32300280965348E-18));
#1055=DIRECTION('ref_axis',(1.95905196956603E-16,-0.999301110879256,-0.0373803396919345));
#1056=DIRECTION('',(0.,-0.0373803396919392,0.999301110879256));
#1057=DIRECTION('center_axis',(-1.12213353588511E-46,0.999301110879256,
0.0373803396919362));
#1058=DIRECTION('ref_axis',(1.,-2.4205120957807E-33,6.47083586223331E-32));
#1059=DIRECTION('',(0.,-0.0373803396919392,0.999301110879256));
#1060=DIRECTION('center_axis',(-1.,0.,0.));
#1061=DIRECTION('ref_axis',(0.,0.999301110879256,0.0373803396919364));
#1062=DIRECTION('center_axis',(7.84530705872719E-18,0.999301110879256,0.0373803396919362));
#1063=DIRECTION('ref_axis',(1.,-2.84226365261343E-17,5.49953942777861E-16));
#1064=DIRECTION('',(0.,0.0373803396919362,-0.999301110879256));
#1065=DIRECTION('',(0.,0.0373803396919362,-0.999301110879256));
#1066=DIRECTION('center_axis',(1.,0.,0.));
#1067=DIRECTION('ref_axis',(0.,-0.999301110879256,-0.0373803396919363));
#1068=DIRECTION('center_axis',(-1.,-9.45682653237097E-17,-3.53746617850458E-18));
#1069=DIRECTION('ref_axis',(-9.46344042793086E-17,0.999301110879256,0.0373803396919345));
#1070=DIRECTION('center_axis',(-1.,0.,0.));
#1071=DIRECTION('ref_axis',(0.,0.999301110879255,0.0373803396919661));
#1072=CARTESIAN_POINT('',(0.,0.,0.));
#1073=CARTESIAN_POINT('Origin',(186.7375,-1.01659350248374,9.38750953636382));
#1074=CARTESIAN_POINT('',(244.65,-1.12873452155955,12.3854128690016));
#1075=CARTESIAN_POINT('',(244.65,1.98130983015403,9.49965055543963));
#1076=CARTESIAN_POINT('Origin',(244.65,-1.01659350248374,9.38750953636382));
#1077=CARTESIAN_POINT('',(2.99999999999999,1.98130983015403,9.49965055543963));
#1078=CARTESIAN_POINT('',(186.7375,1.98130983015403,9.49965055543963));
#1079=CARTESIAN_POINT('',(2.99999999999997,-1.12873452155954,12.3854128690016));
#1080=CARTESIAN_POINT('Origin',(2.99999999999997,-1.01659350248373,9.38750953636382));
#1081=CARTESIAN_POINT('',(186.7375,-1.12873452155954,12.3854128690016));
#1082=CARTESIAN_POINT('Ctrl Pts',(2.99999999999999,1.98130983015403,9.49965055543963));
#1083=CARTESIAN_POINT('Ctrl Pts',(-2.00000000000001,1.98130983015403,9.49965055543963));
#1084=CARTESIAN_POINT('Ctrl Pts',(-2.00000000000001,-3.01519572424225,9.31274885697995));
#1085=CARTESIAN_POINT('Ctrl Pts',(2.99999999999999,1.86916881107823,12.4975538880774));
#1086=CARTESIAN_POINT('Ctrl Pts',(-2.00000000000001,1.86916881107823,12.4975538880774));
#1087=CARTESIAN_POINT('Ctrl Pts',(-2.00000000000001,-3.12733674331806,12.3106521896177));
#1088=CARTESIAN_POINT('Ctrl Pts',(2.99999999999999,-1.12873452155954,12.3854128690016));
#1089=CARTESIAN_POINT('Ctrl Pts',(0.99999999999999,-1.12873452155954,12.3854128690016));
#1090=CARTESIAN_POINT('Ctrl Pts',(0.99999999999999,-3.12733674331806,12.3106521896177));
#1091=CARTESIAN_POINT('',(-1.99999999999999,-3.01519572424225,9.31274885697995));
#1092=CARTESIAN_POINT('',(0.999999999999989,-3.12733674331806,12.3106521896177));
#1093=CARTESIAN_POINT('Origin',(0.999999999999989,-3.01519572424225,9.31274885697995));
#1094=CARTESIAN_POINT('Origin',(2.99999999999999,-3.12733674331806,12.3106521896177));
#1095=CARTESIAN_POINT('Origin',(2.99999999999999,-3.01519572424225,9.31274885697995));
#1096=CARTESIAN_POINT('Origin',(1.00000000000001,-18.068690169846,8.74965057779137));
#1097=CARTESIAN_POINT('',(-2.,-73.2221846154497,6.68655234330627));
#1098=CARTESIAN_POINT('',(1.,-73.3343256345255,9.68445567594405));
#1099=CARTESIAN_POINT('Origin',(1.,-73.2221846154497,6.68655234330627));
#1100=CARTESIAN_POINT('',(1.00000000000001,-18.1808311889218,11.7475539104291));
#1101=CARTESIAN_POINT('',(-1.99999999999999,-18.068690169846,8.74965057779137));
#1102=CARTESIAN_POINT('Ctrl Pts',(-2.,-73.2221846154497,6.68655234330627));
#1103=CARTESIAN_POINT('Ctrl Pts',(-2.,-78.218690169846,6.49965064484659));
#1104=CARTESIAN_POINT('Ctrl Pts',(3.,-78.218690169846,6.49965064484659));
#1105=CARTESIAN_POINT('Ctrl Pts',(-2.,-73.3343256345255,9.68445567594405));
#1106=CARTESIAN_POINT('Ctrl Pts',(-2.,-78.3308311889218,9.49755397748436));
#1107=CARTESIAN_POINT('Ctrl Pts',(3.,-78.3308311889218,9.49755397748436));
#1108=CARTESIAN_POINT('Ctrl Pts',(1.,-73.3343256345255,9.68445567594404));
#1109=CARTESIAN_POINT('Ctrl Pts',(1.,-75.332927856284,9.60969499656017));
#1110=CARTESIAN_POINT('Ctrl Pts',(3.,-75.332927856284,9.60969499656017));
#1111=CARTESIAN_POINT('',(3.,-78.218690169846,6.49965064484659));
#1112=CARTESIAN_POINT('',(3.,-75.332927856284,9.60969499656017));
#1113=CARTESIAN_POINT('Origin',(3.,-75.2207868372082,6.6117916639224));
#1114=CARTESIAN_POINT('Origin',(3.,-73.3343256345255,9.68445567594404));
#1115=CARTESIAN_POINT('Origin',(3.,-73.2221846154497,6.68655234330627));
#1116=CARTESIAN_POINT('Origin',(60.9125,-75.2207868372082,6.6117916639224));
#1117=CARTESIAN_POINT('',(244.65,-78.218690169846,6.49965064484659));
#1118=CARTESIAN_POINT('',(244.65,-75.332927856284,9.60969499656017));
#1119=CARTESIAN_POINT('Origin',(244.65,-75.2207868372082,6.6117916639224));
#1120=CARTESIAN_POINT('',(60.9125,-75.332927856284,9.60969499656017));
#1121=CARTESIAN_POINT('',(60.9125,-78.218690169846,6.49965064484659));
#1122=CARTESIAN_POINT('Ctrl Pts',(244.65,-78.218690169846,6.49965064484659));
#1123=CARTESIAN_POINT('Ctrl Pts',(249.65,-78.218690169846,6.49965064484659));
#1124=CARTESIAN_POINT('Ctrl Pts',(249.65,-73.2221846154497,6.68655234330627));
#1125=CARTESIAN_POINT('Ctrl Pts',(244.65,-78.3308311889218,9.49755397748437));
#1126=CARTESIAN_POINT('Ctrl Pts',(249.65,-78.3308311889218,9.49755397748437));
#1127=CARTESIAN_POINT('Ctrl Pts',(249.65,-73.3343256345255,9.68445567594405));
#1128=CARTESIAN_POINT('Ctrl Pts',(244.65,-75.332927856284,9.60969499656017));
#1129=CARTESIAN_POINT('Ctrl Pts',(246.65,-75.332927856284,9.60969499656017));
#1130=CARTESIAN_POINT('Ctrl Pts',(246.65,-73.3343256345255,9.68445567594404));
#1131=CARTESIAN_POINT('',(249.65,-73.2221846154497,6.68655234330627));
#1132=CARTESIAN_POINT('',(246.65,-73.3343256345255,9.68445567594404));
#1133=CARTESIAN_POINT('Origin',(246.65,-73.2221846154497,6.68655234330627));
#1134=CARTESIAN_POINT('Origin',(244.65,-73.3343256345255,9.68445567594404));
#1135=CARTESIAN_POINT('Origin',(244.65,-73.2221846154497,6.68655234330627));
#1136=CARTESIAN_POINT('Origin',(246.65,-58.168690169846,7.24965062249485));
#1137=CARTESIAN_POINT('',(249.65,-3.01519572424225,9.31274885697995));
#1138=CARTESIAN_POINT('',(246.65,-3.12733674331804,12.3106521896177));
#1139=CARTESIAN_POINT('Origin',(246.65,-3.01519572424223,9.31274885697995));
#1140=CARTESIAN_POINT('',(246.65,-58.2808311889218,10.2475539551326));
#1141=CARTESIAN_POINT('',(249.65,-58.168690169846,7.24965062249485));
#1142=CARTESIAN_POINT('Ctrl Pts',(249.65,-3.01519572424225,9.31274885697995));
#1143=CARTESIAN_POINT('Ctrl Pts',(249.65,1.98130983015403,9.49965055543963));
#1144=CARTESIAN_POINT('Ctrl Pts',(244.65,1.98130983015403,9.49965055543963));
#1145=CARTESIAN_POINT('Ctrl Pts',(249.65,-3.12733674331806,12.3106521896177));
#1146=CARTESIAN_POINT('Ctrl Pts',(249.65,1.86916881107822,12.4975538880774));
#1147=CARTESIAN_POINT('Ctrl Pts',(244.65,1.86916881107823,12.4975538880774));
#1148=CARTESIAN_POINT('Ctrl Pts',(246.65,-3.12733674331805,12.3106521896177));
#1149=CARTESIAN_POINT('Ctrl Pts',(246.65,-1.12873452155955,12.3854128690016));
#1150=CARTESIAN_POINT('Ctrl Pts',(244.65,-1.12873452155955,12.3854128690016));
#1151=CARTESIAN_POINT('Origin',(244.65,-3.12733674331805,12.3106521896177));
#1152=CARTESIAN_POINT('Origin',(244.65,-3.01519572424225,9.31274885697995));
#1153=CARTESIAN_POINT('Origin',(3.,-73.2034944456037,6.18690178786665));
#1154=CARTESIAN_POINT('',(-2.,-73.2034944456037,6.18690178786665));
#1155=CARTESIAN_POINT('',(-2.,-73.2034944456037,6.18690178786665));
#1156=CARTESIAN_POINT('',(3.,-78.2,6.00000008940697));
#1157=CARTESIAN_POINT('Origin',(3.,-73.2034944456037,6.18690178786665));
#1158=CARTESIAN_POINT('',(3.,-78.2,6.00000008940697));
#1159=CARTESIAN_POINT('Origin',(-1.99999999999999,2.,9.));
#1160=CARTESIAN_POINT('',(-1.99999999999999,-2.99650555439628,8.81309830154032));
#1161=CARTESIAN_POINT('',(-1.99999999999999,-2.99650555439628,8.81309830154032));
#1162=CARTESIAN_POINT('',(-1.99999999999999,2.,9.));
#1163=CARTESIAN_POINT('Origin',(2.99999999999999,-2.99650555439628,8.81309830154032));
#1164=CARTESIAN_POINT('',(3.00000000000001,2.,9.00000000000001));
#1165=CARTESIAN_POINT('',(2.99999999999999,2.,9.));
#1166=CARTESIAN_POINT('Origin',(2.99999999999999,-2.99650555439628,8.81309830154032));
#1167=CARTESIAN_POINT('Origin',(249.65,2.,9.));
#1168=CARTESIAN_POINT('',(244.65,2.,9.));
#1169=CARTESIAN_POINT('',(244.65,2.,9.));
#1170=CARTESIAN_POINT('',(249.65,2.,9.));
#1171=CARTESIAN_POINT('Origin',(123.825,-38.2308311889218,10.9975539327809));
#1172=CARTESIAN_POINT('Origin',(134.775,-37.6722541019072,7.51600051423946));
#1173=CARTESIAN_POINT('',(112.875000000001,-37.672254101907,7.51600051423476));
#1174=CARTESIAN_POINT('',(134.775,-37.672254101907,7.51600051423476));
#1175=CARTESIAN_POINT('',(129.3,-37.6722541019066,7.51600051423472));
#1176=CARTESIAN_POINT('',(134.775,-37.7283246114447,9.01495218055836));
#1177=CARTESIAN_POINT('',(134.775,-37.6722541019068,7.51600051423948));
#1178=CARTESIAN_POINT('',(112.875,-37.7283246114444,9.01495218054897));
#1179=CARTESIAN_POINT('',(129.3,-37.7283246114444,9.01495218054913));
#1180=CARTESIAN_POINT('',(112.875,-37.6722541019065,7.51600051423008));
#1181=CARTESIAN_POINT('Origin',(114.375,-36.1733024355879,7.57207102376864));
#1182=CARTESIAN_POINT('',(114.375000000001,-36.1733024355881,7.57207102377267));
#1183=CARTESIAN_POINT('',(133.275000000001,-36.1733024355881,7.57207102377267));
#1184=CARTESIAN_POINT('',(119.1,-36.1733024355881,7.57207102377238));
#1185=CARTESIAN_POINT('',(114.375,-36.2293729451255,9.07102269008753));
#1186=CARTESIAN_POINT('',(114.375,-36.1733024355876,7.57207102376865));
#1187=CARTESIAN_POINT('',(133.275,-36.2293729451258,9.07102269009591));
#1188=CARTESIAN_POINT('',(128.55,-36.2293729451255,9.07102269008727));
#1189=CARTESIAN_POINT('',(133.275,-36.1733024355879,7.57207102377702));
#1190=CARTESIAN_POINT('Origin',(123.825,-19.3350787172725,8.20192974758151));
#1191=CARTESIAN_POINT('',(114.375,-1.99720444351712,8.85047864123225));
#1192=CARTESIAN_POINT('',(114.375,-8.66753935863633,8.60096487379293));
#1193=CARTESIAN_POINT('',(133.275,-1.99720444351712,8.85047864123226));
#1194=CARTESIAN_POINT('',(133.275,-27.2545400209905,7.90569055552292));
#1195=CARTESIAN_POINT('',(134.775,-1.99720444351724,8.85047864123666));
#1196=CARTESIAN_POINT('',(134.775,-1.99720444351724,8.85047864123666));
#1197=CARTESIAN_POINT('',(134.775,-8.66753935863633,8.60096487379293));
#1198=CARTESIAN_POINT('',(112.875000000001,-1.99720444351723,8.8504786412366));
#1199=CARTESIAN_POINT('',(112.875000000001,-36.6729529910277,7.55338085392646));
#1200=CARTESIAN_POINT('',(134.775,-1.99720444351724,8.85047864123666));
#1201=CARTESIAN_POINT('Origin',(133.275,-2.89351875792931E-14,8.92518703464855));
#1202=CARTESIAN_POINT('',(133.275,-5.34383090305267E-15,8.92518703464856));
#1203=CARTESIAN_POINT('',(114.375,-5.21673692870128E-15,8.92518703464856));
#1204=CARTESIAN_POINT('',(128.55,-2.88554235118055E-14,8.92518703464855));
#1205=CARTESIAN_POINT('',(133.275,-0.0560705095379333,10.4241387009674));
#1206=CARTESIAN_POINT('',(133.275,-2.89351875792931E-14,8.92518703464855));
#1207=CARTESIAN_POINT('',(114.375,-0.0560705095379333,10.4241387009674));
#1208=CARTESIAN_POINT('',(133.275,-0.0560705095379333,10.4241387009674));
#1209=CARTESIAN_POINT('',(114.375,-2.89351875792931E-14,8.92518703464855));
#1210=CARTESIAN_POINT('Origin',(123.825,-38.1,7.50000004470349));
#1211=CARTESIAN_POINT('',(249.65,-2.99650555439626,8.81309830154032));
#1212=CARTESIAN_POINT('Origin',(244.65,-2.99650555439628,8.81309830154032));
#1213=CARTESIAN_POINT('',(249.65,-73.2034944456037,6.18690178786665));
#1214=CARTESIAN_POINT('',(249.65,-78.2,6.00000008940697));
#1215=CARTESIAN_POINT('',(244.65,-78.2,6.00000008940697));
#1216=CARTESIAN_POINT('Origin',(244.65,-73.2034944456037,6.18690178786665));
#1217=CARTESIAN_POINT('',(-2.,-78.2,6.00000008940697));
#1218=CARTESIAN_POINT('',(112.875,-5.20665010534006E-15,8.92518703464856));
#1219=CARTESIAN_POINT('',(-1.,-4.44089209850063E-15,8.92518703464856));
#1220=CARTESIAN_POINT('',(112.875,0.00139777824144198,8.92523932061613));
#1221=CARTESIAN_POINT('',(112.875,-19.0493011108793,8.21261968265981));
#1222=CARTESIAN_POINT('',(0.,0.00139777824144802,8.92523932061599));
#1223=CARTESIAN_POINT('',(61.9125,0.00139777824144729,8.92523932061613));
#1224=CARTESIAN_POINT('',(7.21644966006352E-15,-76.2013977782415,6.07476076879084));
#1225=CARTESIAN_POINT('',(1.71056941445901E-48,-57.1506988891208,6.78738040674716));
#1226=CARTESIAN_POINT('',(247.65,-76.2013977782415,6.07476076879084));
#1227=CARTESIAN_POINT('',(185.7375,-76.2013977782415,6.07476076879084));
#1228=CARTESIAN_POINT('',(247.65,0.00139777824144101,8.92523932061613));
#1229=CARTESIAN_POINT('',(247.65,-19.0493011108793,8.21261968265981));
#1230=CARTESIAN_POINT('',(134.775,0.00139777824144191,8.92523932061613));
#1231=CARTESIAN_POINT('',(129.3,0.00139777824144424,8.92523932061613));
#1232=CARTESIAN_POINT('',(134.775,-5.35391772641389E-15,8.92518703464856));
#1233=CARTESIAN_POINT('',(134.775,-20.0486022217585,8.17523934296787));
#1234=CARTESIAN_POINT('',(-1.,-4.44089209850063E-15,8.92518703464856));
#1235=CARTESIAN_POINT('Origin',(114.375,1.99999999999999,9.));
#1236=CARTESIAN_POINT('',(114.375000000001,-1.94113393397933,7.35152697491772));
#1237=CARTESIAN_POINT('',(114.375,-1.9691691887482,8.10100280807499));
#1238=CARTESIAN_POINT('',(114.375000000001,8.32667268468867E-16,7.42413796778602));
#1239=CARTESIAN_POINT('',(114.375000000001,2.05607050953754,7.50104833368111));
#1240=CARTESIAN_POINT('',(114.375000000001,8.64440762056708E-16,6.00000000002538));
#1241=CARTESIAN_POINT('',(114.375,-36.6930711718921,9.05367737040073));
#1242=CARTESIAN_POINT('Origin',(245.65,-1.99720444351707,8.85047864123226));
#1243=CARTESIAN_POINT('',(245.65,-1.94113393397917,7.35152697491337));
#1244=CARTESIAN_POINT('',(133.275000000001,-1.94113393397933,7.35152697491778));
#1245=CARTESIAN_POINT('',(245.65,-1.94113393397917,7.35152697491337));
#1246=CARTESIAN_POINT('',(245.65,-2.05327495305502,10.3494303075511));
#1247=CARTESIAN_POINT('',(245.65,-1.99720444351712,8.85047864123226));
#1248=CARTESIAN_POINT('',(134.775,-2.05327495305497,10.3494303075511));
#1249=CARTESIAN_POINT('',(245.65,-2.05327495305502,10.3494303075511));
#1250=CARTESIAN_POINT('',(134.775,-1.99720444351615,8.85047864120766));
#1251=CARTESIAN_POINT('',(133.275,-1.96916918874834,8.10100280807882));
#1252=CARTESIAN_POINT('Origin',(245.65,-1.99720444351707,8.85047864123226));
#1253=CARTESIAN_POINT('',(112.875,-2.05327495305497,10.3494303075511));
#1254=CARTESIAN_POINT('',(112.875,-1.99720444351707,8.85047864123219));
#1255=CARTESIAN_POINT('',(1.99999999999999,-2.05327495305502,10.349430307551));
#1256=CARTESIAN_POINT('',(245.65,-2.05327495305502,10.3494303075511));
#1257=CARTESIAN_POINT('',(1.99999999999999,-1.94113393397916,7.35152697491324));
#1258=CARTESIAN_POINT('',(1.99999999999999,-1.99720444351711,8.85047864123213));
#1259=CARTESIAN_POINT('',(119.1,-1.94113393397917,7.35152697491337));
#1260=CARTESIAN_POINT('Origin',(123.825,-38.1560705095379,8.99895171102248));
#1261=CARTESIAN_POINT('',(133.275,-35.2300718342466,9.10840302978761));
#1262=CARTESIAN_POINT('Origin',(123.825,-38.1560705095379,8.99895171102248));
#1263=CARTESIAN_POINT('',(134.775,-37.4425470050515,9.02564211563177));
#1264=CARTESIAN_POINT('',(245.65,-74.2588660660209,7.6484731144936));
#1265=CARTESIAN_POINT('',(245.65,-74.2588660660209,7.6484731144936));
#1266=CARTESIAN_POINT('',(1.99999999999999,-74.2588660660209,7.6484731144936));
#1267=CARTESIAN_POINT('',(1.99999999999999,-74.2588660660209,7.6484731144936));
#1268=CARTESIAN_POINT('',(1.99999999999999,-2.05327495305501,10.349430307551));
#1269=CARTESIAN_POINT('',(112.875,-37.4425470050515,9.02564211563177));
#1270=CARTESIAN_POINT('Origin',(123.825,-38.0439294904621,6.0010483783846));
#1271=CARTESIAN_POINT('',(133.275000000001,0.,7.42413796778651));
#1272=CARTESIAN_POINT('',(133.275000000001,-35.5816290419372,6.09315437745478));
#1273=CARTESIAN_POINT('',(134.775,-4.89967444771353E-16,7.42413796778602));
#1274=CARTESIAN_POINT('',(61.9125,-4.94530619391556E-36,7.42413796778602));
#1275=CARTESIAN_POINT('',(134.775,0.0574682877793463,7.42628765429724));
#1276=CARTESIAN_POINT('',(134.775,0.0574682877793463,7.42628765429724));
#1277=CARTESIAN_POINT('',(247.65,0.0574682877793454,7.42628765429725));
#1278=CARTESIAN_POINT('',(247.65,0.0574682877793454,7.42628765429725));
#1279=CARTESIAN_POINT('',(247.65,-76.1453272687036,4.57580910247195));
#1280=CARTESIAN_POINT('',(247.65,-76.1453272687036,4.57580910247195));
#1281=CARTESIAN_POINT('',(0.,-76.1453272687036,4.57580910247195));
#1282=CARTESIAN_POINT('',(7.21644966006352E-15,-76.1453272687036,4.57580910247195));
#1283=CARTESIAN_POINT('',(0.,0.0574682877793524,7.42628765429711));
#1284=CARTESIAN_POINT('',(0.,0.0574682877793524,7.42628765429711));
#1285=CARTESIAN_POINT('',(112.875,0.0574682877793464,7.42628765429725));
#1286=CARTESIAN_POINT('',(247.65,0.0574682877793454,7.42628765429725));
#1287=CARTESIAN_POINT('',(112.875,-3.42699823697514E-16,7.42413796778602));
#1288=CARTESIAN_POINT('',(112.875,-18.9932306013414,6.71366801634092));
#1289=CARTESIAN_POINT('',(61.9125,-4.94530619391556E-36,7.42413796778602));
#1290=CARTESIAN_POINT('',(2.00000000000001,-74.1467250469451,4.65056978185582));
#1291=CARTESIAN_POINT('',(1.99999999999999,-1.94113393397916,7.35152697491324));
#1292=CARTESIAN_POINT('',(245.65,-74.1467250469451,4.65056978185582));
#1293=CARTESIAN_POINT('',(2.00000000000001,-74.1467250469451,4.65056978185582));
#1294=CARTESIAN_POINT('',(245.65,-74.1467250469451,4.65056978185582));
#1295=CARTESIAN_POINT('Origin',(133.275,-33.1753991029501,7.68421204285213));
#1296=CARTESIAN_POINT('',(133.275000000002,-4.48107127822293E-16,5.34210602145563));
#1297=CARTESIAN_POINT('Origin',(247.65,-76.2013977782415,6.07476076879084));
#1298=CARTESIAN_POINT('',(7.21644966006352E-15,-76.2013977782415,6.07476076879084));
#1299=CARTESIAN_POINT('',(247.65,-76.2013977782415,6.07476076879084));
#1300=CARTESIAN_POINT('Origin',(244.65,-2.99650555439628,8.81309830154032));
#1301=CARTESIAN_POINT('',(249.65,-2.99650555439628,8.81309830154032));
#1302=CARTESIAN_POINT('Origin',(249.65,-78.2,6.00000008940697));
#1303=CARTESIAN_POINT('',(249.65,-73.2034944456037,6.18690178786665));
#1304=CARTESIAN_POINT('Origin',(244.65,-73.2034944456037,6.18690178786665));
#1305=CARTESIAN_POINT('',(244.65,-78.2,6.00000008940697));
#1306=CARTESIAN_POINT('Origin',(-2.,-78.2,6.00000008940697));
#1307=CARTESIAN_POINT('Origin',(112.875,-34.6743507692687,7.62814153330518));
#1308=CARTESIAN_POINT('Origin',(0.,1.66533453693773E-15,3.));
#1309=CARTESIAN_POINT('',(134.775000000001,7.95850363200399E-16,6.00000000002991));
#1310=CARTESIAN_POINT('Origin',(0.,1.66533453693773E-15,3.));
#1311=CARTESIAN_POINT('',(112.875000000002,-3.79516728965985E-16,5.31407076667764));
#1312=CARTESIAN_POINT('Origin',(134.775,1.99999999999998,9.00000000000001));
#1313=CARTESIAN_POINT('Origin',(0.,0.00139777824144805,8.92523932061599));
#1314=CARTESIAN_POINT('',(112.875,0.00139777824144198,8.92523932061613));
#1315=CARTESIAN_POINT('',(0.,0.00139777824144802,8.92523932061599));
#1316=CARTESIAN_POINT('Origin',(112.875,0.00139777824144198,8.92523932061613));
#1317=CARTESIAN_POINT('Origin',(1.99999999999999,-1.99720444351706,8.85047864123213));
#1318=CARTESIAN_POINT('',(1.99999999999999,-74.202795556483,6.14952144817472));
#1319=CARTESIAN_POINT('Origin',(2.00000000000001,-74.202795556483,6.14952144817471));
#1320=CARTESIAN_POINT('',(245.65,-74.202795556483,6.14952144817472));
#1321=CARTESIAN_POINT('Origin',(245.65,-74.202795556483,6.14952144817471));
#1322=CARTESIAN_POINT('Origin',(134.775,0.00139777824144422,8.92523932061607));
#1323=CARTESIAN_POINT('',(247.65,0.00139777824144101,8.92523932061613));
#1324=CARTESIAN_POINT('',(134.775,0.00139777824144191,8.92523932061613));
#1325=CARTESIAN_POINT('Origin',(247.65,0.00139777824144538,8.92523932061613));
#1326=CARTESIAN_POINT('Origin',(7.21644966006352E-15,-76.2013977782415,
6.07476076879084));
#1327=CARTESIAN_POINT('Origin',(134.775,-1.99720444351707,8.8504786412322));
#1328=UNCERTAINTY_MEASURE_WITH_UNIT(LENGTH_MEASURE(0.01),#1332,
'DISTANCE_ACCURACY_VALUE',
'Maximum model space distance between geometric entities at asserted c
onnectivities');
#1329=UNCERTAINTY_MEASURE_WITH_UNIT(LENGTH_MEASURE(0.01),#1332,
'DISTANCE_ACCURACY_VALUE',
'Maximum model space distance between geometric entities at asserted c
onnectivities');
#1330=(
GEOMETRIC_REPRESENTATION_CONTEXT(3)
GLOBAL_UNCERTAINTY_ASSIGNED_CONTEXT((#1328))
GLOBAL_UNIT_ASSIGNED_CONTEXT((#1332,#1334,#1335))
REPRESENTATION_CONTEXT('','3D')
);
#1331=(
GEOMETRIC_REPRESENTATION_CONTEXT(3)
GLOBAL_UNCERTAINTY_ASSIGNED_CONTEXT((#1329))
GLOBAL_UNIT_ASSIGNED_CONTEXT((#1332,#1334,#1335))
REPRESENTATION_CONTEXT('','3D')
);
#1332=(
LENGTH_UNIT()
NAMED_UNIT(*)
SI_UNIT(.MILLI.,.METRE.)
);
#1333=(
LENGTH_UNIT()
NAMED_UNIT(*)
SI_UNIT($,.METRE.)
);
#1334=(
NAMED_UNIT(*)
PLANE_ANGLE_UNIT()
SI_UNIT($,.RADIAN.)
);
#1335=(
NAMED_UNIT(*)
SI_UNIT($,.STERADIAN.)
SOLID_ANGLE_UNIT()
);
#1336=SHAPE_DEFINITION_REPRESENTATION(#1337,#1338);
#1337=PRODUCT_DEFINITION_SHAPE('',$,#1340);
#1338=SHAPE_REPRESENTATION('',(#802),#1330);
#1339=PRODUCT_DEFINITION_CONTEXT('part definition',#1344,'design');
#1340=PRODUCT_DEFINITION('noone-v3','noone-v3 v14',#1341,#1339);
#1341=PRODUCT_DEFINITION_FORMATION('',$,#1346);
#1342=PRODUCT_RELATED_PRODUCT_CATEGORY('noone-v3 v14','noone-v3 v14',(#1346));
#1343=APPLICATION_PROTOCOL_DEFINITION('international standard',
'automotive_design',2009,#1344);
#1344=APPLICATION_CONTEXT(
'Core Data for Automotive Mechanical Design Process');
#1345=PRODUCT_CONTEXT('part definition',#1344,'mechanical');
#1346=PRODUCT('noone-v3','noone-v3 v14',$,(#1345));
#1347=PRESENTATION_STYLE_ASSIGNMENT((#1348));
#1348=SURFACE_STYLE_USAGE(.BOTH.,#1349);
#1349=SURFACE_SIDE_STYLE('',(#1350));
#1350=SURFACE_STYLE_FILL_AREA(#1351);
#1351=FILL_AREA_STYLE('Steel - Satin',(#1352));
#1352=FILL_AREA_STYLE_COLOUR('Steel - Satin',#1353);
#1353=COLOUR_RGB('Steel - Satin',0.627450980392157,0.627450980392157,0.627450980392157);
ENDSEC;
END-ISO-10303-21;
